# Collision geometry from gear_base.usd: /factory_gear_base_loose/factory_gear_base_loose/collision; units meters
v -0.059715352952480316 0.023169869557023048 0.0050000725314021111
v -0.061060626059770584 0.021994113922119141 0.0050000762566924095
v -0.062958493828773499 0.021688824519515038 0.0050000040791928768
v -0.064865797758102417 0.022620029747486115 0.0049999430775642395
v -0.065725021064281464 0.024221824482083321 0.0050000306218862534
v -0.065776899456977844 0.02545788511633873 0.0050000008195638657
v -0.065379239618778229 0.026648228988051414 0.0050000408664345741
v -0.064206793904304504 0.027880173176527023 0.004999836441129446
v -0.062607482075691223 0.028311945497989655 0.0049999961629509926
v -0.061322201043367386 0.028098911046981812 0.0050000688061118126
v -0.059998899698257446 0.027209138497710228 0.0049999593757092953
v -0.059320960193872452 0.025913374498486519 0.0050000203773379326
v -0.059191338717937469 0.024713248014450073 0.0049999887123703957
v -0.05917542427778244 0.025205757468938828 2.479307426028754e-09
v -0.059641178697347641 0.026687042787671089 4.4842631830022128e-09
v -0.060594640672206879 0.027712602168321609 -4.3964270446394949e-08
v -0.0620620958507061 0.028306940570473671 3.6614437703974545e-08
v -0.063673533499240875 0.02811078168451786 9.5100453734175971e-08
v -0.065011091530323029 0.027184361591935158 -6.4681870526328566e-08
v -0.065725021064281464 0.025778183713555336 -3.7478645964483803e-08
v -0.065776899456977844 0.02454211562871933 -8.6352786032861673e-10
v -0.065379410982131958 0.023352146148681641 -2.7524524881528123e-08
v -0.064565584063529968 0.022415956482291222 -4.53336007621985e-10
v -0.06332436203956604 0.02176504023373127 -7.9675629649500479e-08
v -0.0614817775785923 0.02182651124894619 -7.6747710409108549e-08
v -0.060280576348304749 0.02254653163254261 -1.8375834187622786e-10
v -0.059494242072105408 0.023566601797938347 4.6568771949750953e-08
v -0.075000002980232239 -0.037500001490116119 0
v 0.075000002980232239 -0.037500001490116119 0
v -0.075000002980232239 -0.037500001490116119 0.004999999888241291
v 0.015250000171363354 -0.037500001490116119 0.004999999888241291
v -0.075000002980232239 0.037500001490116119 0
v -0.075000002980232239 0.037500001490116119 0.004999999888241291
v 0.075000002980232239 0.037500001490116119 0
v 0.0051249992102384567 0.037500001490116119 0.004999999888241291
v 0.075000002980232239 0.037500001490116119 0.004999999888241291
v 0.063874565064907074 -0.021973758935928345 2.1218596657490707e-08
v 0.062282834202051163 0.021665981039404869 -2.096949724972319e-09
v 0.059646189212799072 0.023301634937524796 1.1926744925006005e-08
v 0.060624167323112488 0.022261412814259529 3.6135756609212422e-09
v 0.059159189462661743 0.024907536804676056 -3.9253915673498341e-08
v -0.059673745185136795 -0.023278756067156792 -1.4740942688717951e-08
v 0.061648748815059662 -0.028197890147566795 -1.0426872698587886e-08
v 0.060238953679800034 -0.027467314153909683 3.4225827505451889e-08
v 0.065743699669837952 0.024342469871044159 -2.0868620609348909e-08
v -0.064428314566612244 -0.022279310971498489 4.2287279455877069e-08
v -0.059192541986703873 -0.024611126631498337 9.6516448166994451e-09
v -0.060145560652017593 -0.027334734797477722 -1.3423068878637423e-08
v 0.059178158640861511 -0.024869106709957123 -1.0446800757790697e-08
v -0.059378400444984436 -0.026130875572562218 3.4434475271183373e-09
v 0.063179515302181244 -0.028270453214645386 8.8436344469755568e-08
v 0.064600244164466858 -0.027564492076635361 -2.6759535032283566e-08
v 0.063216812908649445 0.028238316997885704 -3.829677197586534e-08
v 0.059643469750881195 -0.023285996168851852 -1.9492622627126366e-08
v -0.065156489610671997 -0.027010500431060791 2.9236664644827215e-08
v 0.059642806649208069 0.02671564556658268 -4.7029445227053657e-08
v 0.064338728785514832 0.02775271050632 -8.3747613288664979e-09
v -0.06575215607881546 -0.025653457269072533 -9.2607599810889951e-08
v 0.06570722907781601 -0.024149093776941299 5.9079421355079376e-09
v 0.065792866051197052 -0.025306295603513718 -2.3512463087627111e-09
v 0.065767489373683929 0.025589752942323685 -2.6004750353081363e-08
v 0.059384629130363464 -0.026111364364624023 -1.5195727343098042e-08
v -0.064260989427566528 -0.027795635163784027 -8.2624520558738368e-09
v 0.065214730799198151 0.02691170945763588 1.2230622736808527e-08
v 0.065479785203933716 -0.026469290256500244 6.5080540956330424e-10
v -0.063098162412643433 -0.028269989416003227 -4.8985750566998831e-08
v 0.061949931085109711 0.028263214975595474 9.5064685012857808e-09
v 0.060641415417194366 -0.022259840741753578 -1.3576891610966868e-08
v 0.060756705701351166 0.02782747708261013 5.7653237739430097e-09
v 0.062097664922475815 -0.021674858406186104 3.5105095719245583e-08
v -0.065638534724712372 -0.023817555978894234 -1.1770854513315498e-08
v -0.061448946595191956 -0.028167052194476128 8.7190215936061577e-08
v 0.065079547464847565 -0.022907448932528496 -1.7489734105424759e-08
v -0.060546997934579849 -0.022314723581075668 -8.5372136027217493e-09
v 0.06515483558177948 0.022983364760875702 9.2056247069649544e-09
v -0.062938645482063293 -0.021714011207222939 -1.0734058975003791e-07
v 0.063987500965595245 0.022036176174879074 -4.2224666430001889e-08
v -0.061671987175941467 -0.021796815097332001 -7.8140240944435391e-09
v 0.075000002980232239 -0.037500001490116119 0.0049999994225800037
v 0.075000002980232239 0 0.004999999888241291
v -0.061286341398954391 -0.021910607814788818 0.005000011995434761
v -0.065554812550544739 -0.026342511177062988 0.0050000092014670372
v -0.064292058348655701 -0.022219832986593246 0.0050000078044831753
v -0.0601067915558815 -0.027326259762048721 0.0049999901093542576
v -0.059499431401491165 -0.023613834753632545 0.005000005941838026
v -0.059373226016759872 -0.026073819026350975 0.0050000394694507122
v 0.062066938728094101 -0.021706290543079376 0.0050000837072730064
v 0.061341073364019394 -0.028107903897762299 0.0050000539049506187
v 0.062903173267841339 -0.028315175324678421 0.0049998825415968895
v 0.0599818155169487 -0.022833481431007385 0.0049999943003058434
v 0.06461343914270401 -0.027582867071032524 0.004999993834644556
v 0.059235267341136932 -0.024319965392351151 0.005000019446015358
v 0.065562494099140167 -0.026283023878931999 0.0049999896436929703
v -0.027262322604656219 -0.003720525186508894 0.0050000040791928768
v -0.030966956168413162 -0.0047529181465506554 0.0049999961629509926
v -0.026313599199056625 0.0027106567285954952 0.0050000157207250595
v -0.027587799355387688 0.0039579775184392929 0.004999989178031683
v -0.025526866316795349 0.00082075328100472689 0.0049999929033219814
v -0.034270010888576508 0.0025647294241935015 0.0050000040791928768
v -0.025611359626054764 -0.001095934072509408 0.0049999924376606941
v -0.034987825900316238 0.00077265058644115925 0.0050000054761767387
v -0.034189514815807343 -0.002669753972440958 0.004999999888241291
v -0.034845408052206039 -0.0013035180745646358 0.0050000050105154514
v 0.015518819913268089 -0.00062580883968621492 0.005000007338821888
v 0.020120739936828613 0.0047692903317511082 0.005000013392418623
v 0.021341657266020775 -0.0046488516964018345 0.0049999956972897053
v 0.021897122263908386 0.0044861054047942162 0.005000001285225153
v 0.016194002702832222 -0.0025531768333166838 0.0049999775364995003
v 0.015681233257055283 0.0014627815689891577 0.0049999943003058434
v 0.017620919272303581 -0.0039773536846041679 0.004999987781047821
v 0.024624498561024666 -0.0019969630520790815 0.0049999849870800972
v 0.050477810204029083 -0.0047637191601097584 0.0049999868497252464
v 0.048903785645961761 0.0044382866472005844 0.0049999947659671307
v 0.048747703433036804 -0.0043397899717092514 0.0050000101327896118
v 0.053866147994995117 -0.0036477101966738701 0.0049999966286122799
v 0.052901338785886765 0.0042587770149111748 0.0049999980255961418
v 0.055330168455839157 -0.001465550041757524 0.005000007338821888
v 0.047026783227920532 0.0030080904252827168 0.005000013392418623
v 0.04611663892865181 0.0012196550378575921 0.005000013392418623
v 0.055467747151851654 0.00080315547529608011 0.0050000092014670372
v 0.06167125329375267 0.028203165158629417 0.0050000250339508057
v 0.059206545352935791 0.025220369920134544 0.0049999929033219814
v 0.060462258756160736 0.022378601133823395 0.0050000329501926899
v 0.065110303461551666 0.02295844629406929 0.004999975673854351
v 0.063955731689929962 0.021995065733790398 0.0049998941831290722
v 0.065810620784759521 -0.025084912776947021 0.0050000296905636787
v 0.065741568803787231 0.024255335330963135 0.005000025499612093
v 0.065735220909118652 0.025761205703020096 0.004999989178031683
v 0.059400293976068497 0.023761708289384842 0.005000049713999033
v 0.059499248862266541 0.026457788422703743 0.004999957513064146
v 0.065106548368930817 0.027053430676460266 0.0050000040791928768
v 0.060564238578081131 0.027699053287506104 0.0050000082701444626
v 0.062860168516635895 0.028296705335378647 0.0050000138580799103
v 0.062028754502534866 0.02168944850564003 0.0050000227056443691
v 0.064149096608161926 0.027877109125256538 0.0049999780021607876
v 0.046024136245250702 -0.00065096758771687746 0.005000005941838026
v 0.046462543308734894 -0.002076207660138607 0.0049999929033219814
v 0.054547317326068878 0.0029358924366533756 0.0049999966286122799
v 0.052099414169788361 -0.0045716953463852406 0.0049999924376606941
v 0.047338817268610001 -0.0033294924069195986 0.0049999961629509926
v 0.051195722073316574 0.0047593121416866779 0.0050000031478703022
v 0.016706224530935287 0.0031906850636005402 0.0050000082701444626
v 0.025013240054249763 0.00058444292517378926 0.0049999929033219814
v 0.024289686232805252 0.0025403297040611506 0.005000001285225153
v 0.023265562951564789 0.0036900807172060013 0.0050000105984508991
v 0.019325578585267067 -0.0046947081573307514 0.0049999994225800037
v 0.018193941563367844 0.0043312916532158852 0.0049999961629509926
v 0.023134384304285049 -0.003813526825979352 0.004999999888241291
v -0.033108670264482498 -0.0038353742565959692 0.0050000082701444626
v -0.032929163426160812 0.0039720493368804455 0.0049999975599348545
v -0.030895913019776344 0.0047441381029784679 0.0050000087358057499
v -0.026204090565443039 -0.0025208147708326578 0.004999993834644556
v -0.029037665575742722 0.0046102036722004414 0.0049999984912574291
v -0.028758982196450233 -0.0045349285937845707 0.0050000017508864403
v 0.059296071529388428 -0.025843672454357147 0.005000019446015358
v 0.065566942095756531 -0.023726599290966988 0.0050000282935798168
v 0.059961576014757156 -0.027168309316039085 0.004999884869903326
v 0.064732290804386139 -0.022542396560311317 0.005000018049031496
v 0.060882885009050369 -0.022119093686342239 0.004999999888241291
v 0.063540756702423096 -0.02184922993183136 0.004999995231628418
v -0.065803505480289459 -0.024564171209931374 0.0050000213086605072
v -0.064658582210540771 -0.027512382715940475 0.0050000371411442757
v -0.059180554002523422 -0.024805951863527298 0.0049999626353383064
v -0.061846155673265457 -0.028282303363084793 0.0050001158379018307
v -0.065200425684452057 -0.023065773770213127 0.005000013392418623
v -0.060131613165140152 -0.022676087915897369 0.0050000036135315895
v -0.062953740358352661 -0.021688418462872505 0.004999952856451273
v -0.063558496534824371 -0.028143011033535004 0.004999983124434948
v -0.035024046897888184 -0.00046123654465191066 0.023998884484171867
v -0.03422701358795166 -0.0026656142435967922 0.024008927866816521
v -0.032721452414989471 -0.0040953122079372406 0.023993086069822311
v -0.031321682035923004 -0.0046338522806763649 0.024000121280550957
v -0.030089730396866798 -0.0047639370895922184 0.024003954604268074
v -0.028468666598200798 -0.0044273226521909237 0.024000532925128937
v -0.027364188805222511 -0.0037782834842801094 0.024002524092793465
v -0.026433724910020828 -0.0028611470479518175 0.023997504264116287
v -0.025714144110679626 -0.0014631933299824595 0.024002151563763618
v -0.025481158867478371 1.8197888493887149e-05 0.024001795798540115
v -0.025755183771252632 0.0015833645593374968 0.024002000689506531
v -0.026586374267935753 0.0030707439873367548 0.024009661749005318
v -0.027950873598456383 0.0041760681197047234 0.023997033014893532
v -0.029428932815790176 0.0046980967745184898 0.024003436788916588
v -0.031084928661584854 0.0046944692730903625 0.024005506187677383
v -0.03266313299536705 0.0041302787140011787 0.023993277922272682
v -0.034003395587205887 0.0029388556722551584 0.02399866096675396
v -0.034753337502479553 0.0015659125056117773 0.024001153185963631
v 0.023807335644960403 0.0013400433817878366 0.025000693276524544
v 0.022686759009957314 0.0028734405059367418 0.025000132620334625
v 0.020967286080121994 0.0037430557422339916 0.025001239031553268
v 0.019014997407793999 0.0035610739141702652 0.025000212714076042
v 0.017365170642733574 0.0024884773883968592 0.025001142174005508
v 0.016541915014386177 0.00068119383649900556 0.025000352412462234
v 0.016663966700434685 -0.0012791575863957405 0.025000698864459991
v 0.017813205718994141 -0.0028734726365655661 0.025000084191560745
v 0.019071521237492561 -0.0035843749064952135 0.025000434368848801
v 0.020652590319514275 -0.0037517338059842587 0.025000099092721939
v 0.02233569510281086 -0.0031696655787527561 0.025001589208841324
v 0.023883398622274399 -0.0012219510972499847 0.025001456961035728
v 0.015479681082069874 -0.00027020429843105376 0.02401311881840229
v 0.015710638836026192 0.0014542273711413145 0.024001965299248695
v 0.016618192195892334 0.0031288175377994776 0.023995362222194672
v 0.018106374889612198 0.0042604180052876472 0.024000898003578186
v 0.019717838615179062 0.0047467532567679882 0.024005996063351631
v 0.021277552470564842 0.0046464349143207073 0.024000152945518494
v 0.022706042975187302 0.0040927589870989323 0.023996083065867424
v 0.024032335728406906 0.002905805129557848 0.023996854200959206
v 0.024666063487529755 0.0017600260907784104 0.024000108242034912
v 0.024981893599033356 0.0005753394216299057 0.024007894098758698
v 0.024946166202425957 -0.0007560590747743845 0.024000491946935654
v 0.02457643486559391 -0.0020133235957473516 0.02399582602083683
v 0.023500679060816765 -0.0035065652336925268 0.024001289159059525
v 0.021995682269334793 -0.0044374591670930386 0.024005340412259102
v 0.020747635513544083 -0.0047324844636023045 0.023997968062758446
v 0.019415926188230515 -0.0046907993964850903 0.024008158594369888
v 0.017973277717828751 -0.0041905175894498825 0.023993618786334991
v 0.016534022986888885 -0.0030210027471184731 0.023985335603356361
v 0.015819447115063667 -0.0017295395955443382 0.023997940123081207
v 0.054552443325519562 -0.00025945229572243989 0.025000736117362976
v 0.054116696119308472 0.0017135812668129802 0.025000374764204025
v 0.05313921719789505 0.0029162175487726927 0.025000125169754028
v 0.051904018968343735 0.0035881169606000185 0.025000143796205521
v 0.050089288502931595 0.0037409591022878885 0.025000637397170067
v 0.048227172344923019 0.0028287514578551054 0.025000862777233124
v 0.047233119606971741 0.0013706523459404707 0.025000216439366341
v 0.047001417726278305 -0.00076943670865148306 0.025001104921102524
v 0.048232033848762512 -0.0028287053573876619 0.02500084787607193
v 0.049703013151884079 -0.0036187218502163887 0.025000354275107384
v 0.051156025379896164 -0.0037511694245040417 0.025000102818012238
v 0.052549790591001511 -0.0033137716818600893 0.025000147521495819
v 0.053784813731908798 -0.0022560122888535261 0.025000296533107758
v 0.046001594513654709 -0.00046542804921045899 0.024002790451049805
v 0.046167589724063873 0.0013726300094276667 0.02399728074669838
v 0.046941634267568588 0.0028702882118523121 0.024003541097044945
v 0.048110835254192352 0.0039732493460178375 0.024005252867937088
v 0.049758236855268478 0.0046777371317148209 0.023995036259293556
v 0.05160614475607872 0.004694115836173296 0.02400185726583004
v 0.053256776183843613 0.0040681068785488605 0.023999232798814774
v 0.054574321955442429 0.0028501921333372593 0.024003749713301659
v 0.055290061980485916 0.0014519827673211694 0.023997638374567032
v 0.055521413683891296 -0.00033377934596501291 0.024000786244869232
v 0.05495322123169899 -0.0022764061577618122 0.024007847532629967
v 0.05349380150437355 -0.0039343247190117836 0.023992327973246574
v 0.05160968005657196 -0.0046929554082453251 0.024003084748983383
v 0.050274606794118881 -0.0047322781756520271 0.02399805374443531
v 0.049037996679544449 -0.0044569037854671478 0.023997776210308075
v 0.047627661377191544 -0.0036032854113727808 0.02399631030857563
v 0.046492144465446472 -0.0021804396528750658 0.023997373878955841
v -0.033965732902288437 -0.00068389711668714881 0.025000488385558128
v -0.033254910260438919 -0.0022999539505690336 0.025000274181365967
v -0.031642403453588486 -0.0035361326299607754 0.025000562891364098
v -0.029839698225259781 -0.0037489775568246841 0.025000195950269699
v -0.028498325496912003 -0.0033356663770973682 0.025000236928462982
v -0.027231907472014427 -0.0022879494354128838 0.025000199675559998
v -0.026450471952557564 -0.0002445646096020937 0.025001311674714088
v -0.027056256309151649 0.0020583404693752527 0.025000978261232376
v -0.028743935748934746 0.0034899376332759857 0.025000378489494324
v -0.030619166791439056 0.0037572584114968777 0.025000287219882011
v -0.032000217586755753 0.003336296183988452 0.025000160560011864
v -0.033244267106056213 0.0023118399549275637 0.025000294670462608
v -0.033914268016815186 0.00088023126590996981 0.025000127032399178
f 93 60 65
f 9 18 17
f 6 21 20
f 132 69 121
f 8 19 18
f 78 167 76
f 11 16 15
f 3 25 24
f 1 27 26
f 2 26 25
f 10 17 16
f 4 24 23
f 13 14 27
f 37 158 160
f 242 115 241
f 176 152 177
f 101 186 99
f 181 97 153
f 95 172 171
f 207 143 144
f 5 22 21
f 29 79 31
f 32 30 33
f 235 141 113
f 32 33 35
f 242 139 115
f 201 147 142
f 120 239 240
f 231 119 136
f 138 238 239
f 82 161 30
f 243 112 139
f 194 216 215
f 201 191 202
f 97 181 180
f 97 180 96
f 149 171 170
f 107 205 145
f 209 111 143
f 170 102 149
f 108 216 217
f 94 176 175
f 259 185 186
f 96 180 179
f 208 143 207
f 188 205 189
f 194 215 195
f 208 187 198
f 215 146 214
f 238 138 237
f 222 234 223
f 246 140 114
f 247 226 225
f 238 219 239
f 199 193 192
f 237 138 116
f 227 244 228
f 187 190 193
f 229 242 230
f 216 193 217
f 209 198 210
f 179 255 254
f 221 222 225
f 208 198 209
f 240 218 241
f 220 237 221
f 212 196 213
f 241 218 230
f 116 236 237
f 216 194 193
f 253 176 177
f 215 110 146
f 224 232 225
f 239 120 138
f 190 203 202
f 223 233 224
f 243 228 244
f 195 214 196
f 206 144 145
f 93 126 60
f 234 118 233
f 233 223 234
f 174 94 175
f 114 245 246
f 95 173 172
f 178 254 177
f 146 213 214
f 247 136 137
f 99 185 150
f 232 118 119
f 105 204 107
f 102 170 103
f 173 95 154
f 217 104 108
f 254 178 179
f 184 151 150
f 200 192 191
f 4 23 22
f 123 39 129
f 14 13 12
f 134 40 123
f 133 53 135
f 57 131 135
f 60 126 59
f 130 56 132
f 62 157 44
f 127 45 75
f 121 67 133
f 63 168 66
f 43 89 51
f 38 125 77
f 7 20 19
f 86 50 84
f 84 72 164
f 83 46 167
f 47 163 85
f 74 166 81
f 162 55 82
f 162 63 55
f 164 72 66
f 63 162 168
f 85 42 47
f 241 230 242
f 252 174 175
f 213 106 212
f 71 161 58
f 82 58 161
f 91 51 89
f 75 124 127
f 92 54 90
f 156 59 126
f 156 73 59
f 159 70 87
f 73 156 158
f 173 250 172
f 180 256 255
f 206 188 187
f 170 248 169
f 185 259 184
f 243 229 228
f 103 170 169
f 174 251 173
f 191 201 200
f 112 245 114
f 214 195 215
f 226 247 246
f 236 222 221
f 177 254 253
f 189 204 203
f 239 219 218
f 182 153 151
f 258 183 184
f 182 257 256
f 250 253 256
f 9 8 18
f 2 1 26
f 6 5 21
f 8 7 19
f 11 10 16
f 42 85 166
f 78 81 167
f 10 9 17
f 4 3 24
f 7 6 20
f 212 211 197
f 210 211 111
f 226 246 245
f 196 214 213
f 202 203 147
f 234 235 113
f 31 30 28
f 28 29 31
f 32 28 30
f 36 34 35
f 34 32 35
f 65 60 29
f 32 19 20
f 52 65 29
f 28 32 22
f 32 20 21
f 51 52 29
f 32 21 22
f 28 22 71
f 22 23 71
f 51 29 43
f 29 28 44
f 43 29 44
f 23 24 71
f 44 28 72
f 48 44 72
f 24 25 71
f 62 44 48
f 49 62 48
f 25 26 71
f 26 27 71
f 48 50 49
f 66 72 28
f 63 66 28
f 55 63 28
f 58 55 28
f 71 58 28
f 27 14 71
f 46 71 14
f 46 14 76
f 76 14 78
f 74 78 14
f 42 74 14
f 42 14 39
f 54 42 39
f 14 15 56
f 14 56 41
f 68 54 40
f 40 54 39
f 14 41 39
f 70 68 40
f 38 37 70
f 70 40 38
f 185 184 150
f 201 202 147
f 106 148 212
f 101 103 169
f 109 200 201
f 29 34 80
f 34 36 80
f 80 79 29
f 231 232 119
f 79 80 126
f 80 156 126
f 93 91 79
f 79 126 93
f 5 6 33
f 6 7 33
f 13 1 35
f 31 85 163
f 12 13 35
f 31 163 86
f 11 12 35
f 31 86 84
f 10 11 35
f 35 33 9
f 30 31 164
f 31 84 164
f 10 35 9
f 8 9 33
f 30 164 168
f 30 168 162
f 7 8 33
f 30 162 82
f 139 242 243
f 124 125 80
f 127 124 80
f 35 130 132
f 80 36 128
f 127 80 128
f 36 35 133
f 35 132 121
f 35 121 133
f 131 128 36
f 36 133 135
f 135 131 36
f 112 243 244
f 211 148 111
f 120 117 80
f 138 120 80
f 80 125 134
f 80 134 138
f 138 134 116
f 134 123 116
f 116 123 141
f 123 129 141
f 141 129 113
f 113 129 122
f 122 130 35
f 113 122 107
f 118 113 107
f 122 35 107
f 35 1 107
f 1 2 107
f 119 118 144
f 118 107 145
f 2 3 107
f 144 143 119
f 145 144 118
f 105 107 3
f 240 239 218
f 34 29 59
f 29 60 59
f 18 19 32
f 34 59 75
f 59 73 75
f 17 18 32
f 32 34 16
f 73 37 75
f 17 32 16
f 37 38 77
f 16 34 69
f 15 16 69
f 37 77 75
f 69 56 15
f 34 75 45
f 34 45 61
f 67 69 34
f 53 67 34
f 34 61 64
f 57 53 34
f 34 64 57
f 151 183 182
f 142 109 201
f 211 212 148
f 109 104 199
f 199 200 109
f 260 259 186
f 220 238 237
f 206 205 188
f 257 182 183
f 192 200 199
f 98 179 178
f 222 235 234
f 225 232 231
f 227 226 245
f 187 188 189
f 194 195 196
f 196 197 198
f 193 194 196
f 187 189 190
f 190 191 193
f 191 192 193
f 196 198 193
f 198 187 193
f 208 207 187
f 233 232 224
f 245 244 227
f 203 190 189
f 197 196 212
f 226 227 228
f 219 220 221
f 228 229 230
f 218 219 221
f 222 223 225
f 223 224 225
f 225 226 228
f 228 230 225
f 230 218 225
f 218 221 225
f 177 152 100
f 246 247 140
f 116 141 236
f 198 211 210
f 187 207 206
f 204 205 107
f 176 94 152
f 98 96 179
f 47 42 54
f 54 49 47
f 49 50 47
f 184 259 258
f 221 237 236
f 199 217 193
f 143 208 209
f 175 176 253
f 174 154 94
f 149 95 171
f 206 207 144
f 255 179 180
f 146 106 213
f 186 185 99
f 247 231 136
f 137 140 247
f 235 236 141
f 111 209 210
f 241 115 117
f 232 233 118
f 117 120 240
f 178 177 100
f 105 203 204
f 217 199 104
f 108 110 216
f 178 100 98
f 184 183 151
f 203 105 147
f 166 103 81
f 102 103 166
f 149 102 166
f 166 85 149
f 85 31 95
f 85 95 149
f 31 79 88
f 91 89 79
f 95 31 154
f 89 88 79
f 154 31 94
f 31 88 157
f 94 31 152
f 152 31 146
f 31 157 155
f 152 146 100
f 100 146 98
f 31 155 92
f 146 31 92
f 96 98 146
f 92 90 146
f 97 96 146
f 90 159 146
f 153 97 146
f 159 87 146
f 104 109 153
f 108 104 153
f 87 160 146
f 110 108 153
f 146 110 153
f 106 146 160
f 148 106 160
f 148 160 114
f 140 148 114
f 111 148 140
f 143 111 137
f 111 140 137
f 136 119 143
f 137 136 143
f 160 158 80
f 114 160 112
f 112 160 139
f 139 160 115
f 115 160 80
f 158 156 80
f 117 115 80
f 81 78 74
f 123 40 39
f 134 38 40
f 158 37 73
f 84 50 48
f 56 69 132
f 57 64 131
f 128 64 61
f 64 128 131
f 133 67 53
f 62 155 157
f 61 45 127
f 167 46 76
f 43 88 89
f 182 181 153
f 38 134 125
f 231 247 225
f 129 39 41
f 88 43 44
f 82 55 58
f 84 48 72
f 165 71 46
f 74 42 166
f 121 69 67
f 66 168 164
f 220 219 238
f 175 253 252
f 5 4 22
f 71 165 161
f 46 83 165
f 12 15 14
f 124 75 125
f 75 77 125
f 91 52 51
f 160 70 37
f 122 41 130
f 54 68 90
f 155 62 49
f 160 87 70
f 159 90 68
f 122 129 41
f 91 93 65
f 91 65 52
f 3 2 25
f 191 190 202
f 252 251 174
f 173 251 250
f 92 155 49
f 1 13 27
f 135 53 57
f 12 11 15
f 180 181 256
f 170 249 248
f 170 171 249
f 174 173 154
f 145 205 206
f 240 241 117
f 243 242 229
f 236 235 222
f 169 186 101
f 169 248 260
f 260 186 169
f 250 249 171
f 256 181 182
f 112 244 245
f 215 216 110
f 211 198 197
f 113 118 234
f 250 171 172
f 258 257 183
f 256 257 258
f 250 251 253
f 251 252 253
f 254 255 253
f 255 256 253
f 258 259 256
f 259 260 256
f 260 248 249
f 260 249 256
f 249 250 256
f 189 205 204
f 50 163 47
f 159 68 70
f 130 41 56
f 157 88 44
f 33 30 165
f 30 161 165
f 33 165 5
f 4 5 165
f 165 83 4
f 83 167 4
f 4 167 3
f 147 105 3
f 3 167 81
f 147 3 153
f 3 81 101
f 81 103 101
f 142 147 153
f 109 142 153
f 3 101 99
f 3 99 150
f 151 153 3
f 3 150 151
f 127 128 61
f 92 49 54
f 50 86 163
