# Collision geometry from nut_m8.usd: /factory_nut_m8_hex/factory_nut_m8_hex/collision; units meters
v -1.5983237972250208e-05 0.0075890044681727886 0.015262013301253319
v -1.6265945305349305e-05 0.0075890053994953632 0.0099179884418845177
v -0.0065163085237145424 0.0038341993931680918 0.0099091678857803345
v -0.0065170470625162125 0.0038345018401741982 0.015290216542780399
v -0.0011826509144157171 0.0069151627831161022 0.0095828631892800331
v -0.0016138169448822737 0.0066660563461482525 0.015699958428740501
v -0.0051964595913887024 0.0045981267467141151 0.0095425751060247421
v -0.0041166804730892181 0.0052097844891250134 0.0093503417447209358
v -0.0041305455379188061 0.0052045281045138836 0.015828527510166168
v -0.0024473005905747414 0.0061755748465657234 0.0093483356758952141
v 0.0064793475903570652 0.0038406664971262217 0.015287278220057487
v 0.0064839841797947884 0.0038357267621904612 0.0099175926297903061
v 0.0048747383989393711 0.0047656185925006866 0.0094794202595949173
v 0.0039417250081896782 0.0053045982494950294 0.015840740874409676
v 0.0015835983213037252 0.0066660013981163502 0.015699654817581177
v 0.00157033686991781 0.0066734934225678444 0.0094831129536032677
v 0.003953081090003252 0.0052994256839156151 0.0093378853052854538
v 0.0064847627654671669 -0.003667361568659544 0.01529026310890913
v 0.0064840381965041161 -0.0036686072126030922 0.0099175889045000076
v 0.0064839874394237995 -0.0018161508487537503 0.0094802947714924812
v 0.0064839888364076614 0.0020076343789696693 0.0094835897907614708
v 0.0064839664846658707 0.0019922133069485426 0.015699297189712524
v 0.0064863311126828194 -0.00074006064096465707 0.0093378033488988876
v -1.516194697614992e-05 -0.0074219685047864914 0.0099138589575886726
v -1.5996782167349011e-05 -0.0074220006354153156 0.015262401662766933
v 0.0022765714675188065 -0.0060911518521606922 0.0093559008091688156
v 0.0015834912192076445 -0.0064985537901520729 0.015700202435255051
v 0.0048988321796059608 -0.0045850365422666073 0.0094832116737961769
v 0.0040960446931421757 -0.0050391196273267269 0.015829207375645638
v -0.0065147415734827518 -0.0036703550722450018 0.015269623138010502
v -0.0065171616151928902 -0.0036609454546123743 0.0098901651799678802
v -0.0016353055834770203 -0.0064868205226957798 0.015703201293945312
v -0.0049950922839343548 -0.0045473016798496246 0.0094938250258564949
v -0.0015213938895612955 -0.0065527763217687607 0.0094961775466799736
v -0.0025318155530840158 -0.0059723416343331337 0.0093380603939294815
v -0.0025566706899553537 -0.0059581347741186619 0.015842482447624207
v -0.0042035831138491631 -0.0049952082335948944 0.015825841575860977
v -0.0065159485675394535 -0.0018863531295210123 0.01569305919110775
v -0.006516085471957922 0.00090305745834484696 0.015840567648410797
v -0.0065081682987511158 0.0011532484786584973 0.0093540046364068985
v -0.0027467794716358185 -0.002865978516638279 0.009340113028883934
v 0.00023228346253745258 -0.0039308406412601471 0.009340161457657814
v 1.3758987051915028e-06 -0.0064429468475282192 0.0093398718163371086
v -0.0014101428678259254 -0.0036981175653636456 0.0093402788043022156
v 0.0040054963901638985 -0.00018319002992939204 0.0093403039500117302
v 0.0063312607817351818 0.0015764704439789057 0.0093400590121746063
v -0.0044714980758726597 -0.0046756225638091564 0.0093399733304977417
v -0.0036768198478966951 -0.0015994618879631162 0.0093402136117219925
v 0.0025755097158253193 -0.0029758687596768141 0.0093400897458195686
v 0.0015685523394495249 -0.0036097557749599218 0.0093400878831744194
v 0.0035154374781996012 -0.0018563281046226621 0.0093402313068509102
v 0.0056439181789755821 -0.0031656320206820965 0.0093398969620466232
v 0.0037702107802033424 0.0014282132033258677 0.0093400906771421432
v 0.0056313951499760151 0.003354604123160243 0.0093398969620466232
v 0.0039582327008247375 -0.0051293927244842052 0.0093379318714141846
v -0.004018896259367466 -0.00019608506408985704 0.0093400552868843079
v -0.0039059389382600784 0.0010784195037558675 0.0093400720506906509
v 0.00047039688797667623 0.0040592174045741558 0.0093528013676404953
v -2.5609528165659867e-05 0.006608650553971529 0.0093398978933691978
v 1.4266694961406756e-05 0.0040974579751491547 0.0093695446848869324
v -0.0020171487703919411 0.0035600475966930389 0.0093398215249180794
v -0.00093468249542638659 0.0039917342364788055 0.0093400459736585617
v -0.0065161054953932762 -0.00073591741966083646 0.0093393502756953239
v 0.0029838953632861376 0.0027744476683437824 0.009340253658592701
v 0.0017478946829214692 0.0036978779826313257 0.0093401195481419563
v 0.0018708135467022657 0.0063247098587453365 0.0093400003388524055
v -0.005660520400851965 -0.0031915018334984779 0.0093399016186594963
v -0.0056652897037565708 0.0033520241267979145 0.0093398811295628548
v -0.0034690885804593563 0.0020779038313776255 0.0093525713309645653
v -0.0030613422859460115 0.0027128090150654316 0.0093400375917553902
v -0.003831290639936924 -0.00058448081836104393 0.0094873243942856789
v 0.0034792011138051748 -0.00015525863273069263 0.0098528740927577019
v -0.0032093466725200415 0.00020782389037776738 0.01015443354845047
v -0.00029220106080174446 0.0033430282492190599 0.010071782395243645
v -0.00091511884238570929 0.0037915455177426338 0.0095504345372319221
v -0.001143129775300622 0.003134789178147912 0.010107290931046009
v -0.0021244916133582592 0.0030243913643062115 0.0097347963601350784
v -0.0020210666116327047 0.0025801190640777349 0.010146100074052811
v -0.0026457034982740879 0.0018903793534263968 0.010184979066252708
v -0.0027972382958978415 0.0021652793511748314 0.0098793255165219307
v -0.0030798495281487703 0.00099293887615203857 0.010152283124625683
v -0.0031841588206589222 0.0010709213092923164 0.010034014470875263
v 0.00053273036610335112 0.0033535815309733152 0.010040587745606899
v 0.0017073688795790076 0.0029738852754235268 0.0099947443231940269
v 0.002527950331568718 0.0023320687469094992 0.0099546024575829506
v 0.0030949290376156569 0.0015370708424597979 0.0099160689860582352
v 0.0033604884520173073 0.00083561905194073915 0.0098895737901329994
v 0.0032998668029904366 -0.0011298639001324773 0.0098157888278365135
v 0.0030376194044947624 -0.0017293210839852691 0.0097932834178209305
v 0.0024663419462740421 -0.0025168049614876509 0.0097602773457765579
v 0.0013871323317289352 -0.003286618972197175 0.0097121233120560646
v 0.00034574500750750303 -0.0035713682882487774 0.0096770767122507095
v -0.0005094989319331944 -0.0035816652234643698 0.0096470536664128304
v -0.0013066696701571345 -0.0034219678491353989 0.0096186632290482521
v -0.0022768958006054163 -0.0029312113765627146 0.009584144689142704
v -0.0032463863026350737 -0.0019753375090658665 0.0095382798463106155
v -0.0038663898594677448 0.00074287300230935216 0.0094441073015332222
v -0.0034654722549021244 0.0020674664992839098 0.0094046834856271744
v -0.0039871605113148689 -0.0005034544738009572 0.015828542411327362
v -0.0040281252004206181 0.00025481291231699288 0.015805467963218689
v 0.0025157411582767963 -0.0059636658988893032 0.015841953456401825
v 0.0015482220333069563 -0.0036328975111246109 0.015839705243706703
v 0.0027661733329296112 -0.0028058988973498344 0.015839975327253342
v 0.0036034584045410156 -0.0016849115490913391 0.015839792788028717
v 0.005632737185806036 -0.0031850428786128759 0.015840098261833191
v -0.001184305059723556 -0.0037555654998868704 0.015839934349060059
v 2.6229372451780364e-06 -0.003933511208742857 0.015839904546737671
v -2.644542655616533e-05 -0.0064427470788359642 0.015840105712413788
v -0.0021571086253970861 -0.0033056763932108879 0.015839967876672745
v 0.0025648062583059072 0.0031738702673465014 0.015839805826544762
v 0.0010196078801527619 0.0039792037568986416 0.015839746221899986
v 0.0033661331981420517 0.0022284092847257853 0.015840005129575729
v 0.0056426068767905235 0.0033343536779284477 0.015840098261833191
v 0.0064844675362110138 -0.00072787894168868661 0.015840994194149971
v 0.0039965733885765076 -0.00016617565415799618 0.015839910134673119
v -0.0029587429016828537 -0.002642402658239007 0.015839949250221252
v -0.0038341779727488756 0.0013098967028781772 0.015840170904994011
v -0.002261356683447957 0.0034176732879132032 0.015839952975511551
v -0.0032657308038324118 0.00242815469391644 0.015828410163521767
v 0.0018784287385642529 0.0063220341689884663 0.01584000326693058
v -0.0063663274049758911 -0.0013867126544937491 0.01584005169570446
v -0.0035726064816117287 -0.0017686705105006695 0.015839956700801849
v -0.0056788558140397072 -0.003160292049869895 0.015840141102671623
v 0.0038324762135744095 0.0012416664976626635 0.015839865431189537
v -0.000770270184148103 0.00404707295820117 0.015839796513319016
v -0.002542414702475071 0.0061325072310864925 0.015841936692595482
v -5.8858036027231719e-06 0.0066087166778743267 0.015840105712413788
v -0.0056590787135064602 0.0033612539991736412 0.01584010012447834
v 0.0063326908275485039 0.0015688358107581735 0.015839947387576103
v -0.0022369935177266598 -0.0024996893480420113 0.01522409450262785
v -0.0025327145121991634 0.0025540292263031006 0.015352612361311913
v -0.0022262600250542164 0.0023861145600676537 0.015011659823358059
v -0.0028848561923950911 0.0015648994594812393 0.015053385868668556
v -0.0031288834288716316 0.0019441541517153382 0.015462202019989491
v -0.0032025156542658806 0.00075104855932295322 0.015087719075381756
v -0.0035754658747464418 0.001228822860866785 0.015568789094686508
v -0.003908173181116581 9.8171673016622663e-05 0.015714807435870171
v -0.0033016931265592575 -0.00032127075246535242 0.015131327323615551
v -0.0029319215100258589 -0.0015800528926774859 0.015179195441305637
v -0.0013070307904854417 -0.0030926484614610672 0.015261697582900524
v -0.00034842215245589614 -0.0033759705256670713 0.01530103012919426
v 0.00090529187582433224 -0.0033235086593776941 0.015344571322202682
v 0.0020877618808299303 -0.0027961849700659513 0.015391900204122066
v 0.0027096876874566078 -0.0022501242347061634 0.015419757924973965
v 0.0032820184715092182 -0.0014554316876456141 0.015455039218068123
v 0.0036296993494033813 -0.00028891785768792033 0.015496928244829178
v 0.003623889060690999 0.00085019093239679933 0.015537266619503498
v 0.003200434148311615 0.0020042890682816505 0.015578874386847019
v 0.0026014251634478569 0.0028135923203080893 0.015610786154866219
v 0.001801283797249198 0.0034487063530832529 0.015645092353224754
v 0.00071997370105236769 0.0038683183956891298 0.01568324863910675
v -0.00052094511920586228 0.0039547882042825222 0.015724457800388336
v -0.0017059030942618847 0.0036356488708406687 0.015762915834784508
v -0.0025663552805781364 0.0031397396232932806 0.015792485326528549
v -0.0014858945505693555 0.0031072695273905993 0.01518669817596674
v -0.0015724154654890299 0.0028671813197433949 0.015026576817035675
v -0.00076189293758943677 0.0032078402582556009 0.015051598660647869
v -0.0014719092287123203 0.0038219355046749115 0.015551133081316948
v 0.0018561681499704719 0.0036417688243091106 0.015378833748400211
v 0.0037505608052015305 0.0014546021120622754 0.015231085941195488
v 0.003991750068962574 0.00033589868689887226 0.015175824053585529
v 0.0035126481670886278 -0.0018356465734541416 0.015061179175972939
v 0.0025826613418757915 -0.0029908283613622189 0.014988303184509277
v 0.0021006476599723101 -0.0023369768168777227 0.01452899444848299
v -0.00011824432294815779 -0.0039413808844983578 0.01484412606805563
v 0.00020244863117113709 -0.0031017397996038198 0.014394635334610939
v -0.00056736206170171499 -0.0030651758424937725 0.014347830787301064
v -0.0032993536442518234 -0.0022290600463747978 0.014660599641501904
v -0.0039596911519765854 0.00084715092089027166 0.01449656393378973
v -0.0035657302942126989 0.0019437948940321803 0.014442786574363708
v -0.0028053149580955505 0.0016589633887633681 0.013966474682092667
v -0.00097612047102302313 0.0039818771183490753 0.014273113571107388
v -0.00082417658995836973 0.0031761277932673693 0.013807565905153751
v 0.0022672212217003107 0.0033783458638936281 0.014104601927101612
v 0.0030717402696609497 0.0026456213090568781 0.01405351422727108
v 0.002335492754355073 0.0022408999502658844 0.01359072607010603
v 0.0039803450927138329 0.0004062183725181967 0.013927789404988289
v 0.0039170011878013611 -0.00071259780088439584 0.013875051401555538
v 0.0031229488085955381 -0.00055133679416030645 0.013401176780462265
v 0.0019231773912906647 -0.003424330847337842 0.013700407929718494
v -0.0019227018347010016 -0.0034458744339644909 0.013502596877515316
v -0.0017258916050195694 -0.0026088724844157696 0.013019705191254616
v -0.0026912724133580923 -0.0028971857391297817 0.013456313870847225
v -0.0039499690756201744 -0.00076706591062247753 0.013333158567547798
v -0.0024805786088109016 0.0032608530018478632 0.013107133097946644
v -0.0026899650692939758 0.0018485719338059425 0.012701763771474361
v 0.00078691431554034352 0.0040183630771934986 0.012938152998685837
v 0.00030545095796696842 0.0032644353341311216 0.012487525120377541
v 0.0030863734427839518 0.0026543608400970697 0.012798065319657326
v 0.0037267401348799467 0.001517746364697814 0.012732189148664474
v 0.0033808380831032991 -0.0020519716199487448 0.01255110464990139
v 0.0025547477416694164 -0.0018263059901073575 0.012067336589097977
v 0.00123162183444947 -0.0037451211828738451 0.012413354590535164
v 0.00059112167218700051 -0.0030558132566511631 0.011920814402401447
v -0.00020257844880688936 -0.003925049677491188 0.012342317961156368
v -0.0002688358654268086 -0.0031027786899358034 0.011864190921187401
v -0.0032535507343709469 -0.0022862257901579142 0.01216435432434082
v -0.0022336484398692846 -0.0022243529092520475 0.011728617362678051
v -0.0039196345023810863 0.00099118822254240513 0.011992390267550945
v -0.0032220589928328991 0.00021420647681225091 0.011558543890714645
v -0.0029448994901031256 0.0013805127236992121 0.011484858579933643
v -0.0017730685649439692 0.0036858553066849709 0.011815590783953667
v -0.00090811325935646892 0.0039884699508547783 0.011772090569138527
v 0.0014857483329251409 0.0038103209808468819 0.011648972518742085
v 0.0025852385442703962 0.0031383922323584557 0.011588838882744312
v 0.0039567467756569386 0.00073204329237341881 0.011446021497249603
v 0.0016197710065171123 -0.0026609222404658794 0.010737849399447441
v 0.002050032140687108 -0.0033660714980214834 0.011204353533685207
v -0.0013414158020168543 -0.0037064105272293091 0.011034118011593819
v -0.0035890480503439903 -0.0017337361350655556 0.010882996022701263
v -0.002916697645559907 -0.0012613801518455148 0.010403583757579327
v -0.0039647333323955536 -0.00064265000401064754 0.010826769284904003
v -0.0031454223208129406 -0.00053877331083640456 0.010357465595006943
v -0.0035512363538146019 0.0019731766078621149 0.010687295347452164
v -0.00024150653916876763 0.0040797591209411621 0.010488499887287617
v 0.0030599350575357676 0.0026534234639257193 0.010301731526851654
v 0.0035755252465605736 0.0018571771215647459 0.010253475047647953
v 0.003962214570492506 -0.0004885444650426507 0.010132157243788242
v 0.0035636650864034891 -0.0017283615889027715 0.010070624761283398
v 0.00033354322658851743 0.0032621109858155251 0.014986299909651279
v 0.0029244418255984783 0.0013397447764873505 0.014775862917304039
v 0.0028141038492321968 -0.0014042847324162722 0.01459796167910099
v -0.002349823247641325 -0.002112305723130703 0.014221382327377796
v -0.002912567462772131 -0.0012657928746193647 0.014155874028801918
v -0.0031441277824342251 0.00072743539931252599 0.014029763638973236
v 0.0017611635848879814 0.0027357817161828279 0.01364032831043005
v -0.0010284818708896637 -0.0029497069772332907 0.013068836182355881
v -0.0030117046553641558 -0.0010338138090446591 0.012890525162220001
v 0.0026363299693912268 0.001875615562312305 0.012314126826822758
v -0.0027210207190364599 -0.0016077765030786395 0.011678002774715424
v -0.0015557681908831 0.0028859726153314114 0.011357842013239861
v 0.0018404691945761442 0.0026912223547697067 0.011135325767099857
v 0.0031277707312256098 0.00074753700755536556 0.010986282490193844
v 0.0022437756415456533 -0.0021749241277575493 0.010789807885885239
v -0.00034617612254805863 -0.0031084797810763121 0.010613365098834038
v 0.0019911800045520067 -0.0033831158652901649 0.0099521828815340996
v -0.0017294319113716483 -0.0035341775510460138 0.0097586615011096001
v -0.004038102924823761 5.439823326014448e-06 0.0095395278185606003
v -0.0038193517830222845 0.0013591711176559329 0.009470735676586628
v -0.0037987127434462309 -0.0012266458943486214 0.0096033867448568344
v -0.0034033753909170628 -0.0020661354064941406 0.0096497265622019768
v -0.0025802506133913994 -0.0030061898287385702 0.0097156576812267303
v -0.00074253597995266318 -0.0038690394721925259 0.0098162982612848282
v 0.00025984432431869209 -0.0039103948511183262 0.0098648415878415108
v 0.0011576036922633648 -0.0037529843393713236 0.0099082924425601959
v 0.00070464779855683446 0.0040308483876287937 0.010440001264214516
v -0.0011265022912994027 0.0039355000481009483 0.010528466664254665
v -0.0028744321316480637 0.0028982914518564939 0.010633052326738834
v -0.003442446468397975 0.0021560774184763432 0.015680503100156784
v -0.0038239709101617336 0.0013457224704325199 0.015723872929811478
v -0.0030439123511314392 0.001092773862183094 0.01025380939245224
v -0.0032133806962519884 0.00026315671857446432 0.010309238918125629
v -0.0024488815106451511 -0.0019857299048453569 0.010460200719535351
v -0.0016173236072063446 -0.0026988633908331394 0.010526838712394238
v 0.00079880055272951722 -0.0030111032538115978 0.010684925131499767
v 0.0027654503937810659 -0.0014986767200753093 0.010842691175639629
v 0.0031301944982260466 -0.00052008492639288306 0.01090219896286726
v 0.0039208470843732357 -0.00069065735442563891 0.011374274268746376
v 0.0026041236706078053 0.0019252696074545383 0.011064690537750721
v 0.0034079733304679394 0.0021878522820770741 0.011522947810590267
v 0.0010376042919233441 0.0030994841363281012 0.011187621392309666
v 0.00030770123703405261 0.0032604541629552841 0.011235401034355164
v -0.00061947928043082356 0.0032277114223688841 0.011294975876808167
v -0.002625990891829133 0.0031269697938114405 0.011864475905895233
v -0.0023345707450062037 0.0022924898657947779 0.011420289985835552
v -0.0040189428254961967 0.00013667876191902906 0.012036465108394623
v -0.0030587648507207632 -0.00090740411542356014 0.011631356552243233
v -0.0025704882573336363 -0.0029985180590301752 0.012213947251439095
v -0.0012892442755401134 -0.0028604487888514996 0.01180220115929842
v 0.001667883712798357 -0.0026538909878581762 0.011995624750852585
v 0.0038898964412510395 -0.00086260016541928053 0.012611242011189461
v 0.0030552763491868973 -0.00083137757610529661 0.01213323138654232
v 0.0031787254847586155 0.00018640690541360527 0.012200509198009968
v 0.0030664908699691296 0.00094455265207216144 0.012248537503182888
v 0.0020838417112827301 0.0024875528179109097 0.012364058755338192
v 0.0013277978869155049 0.0029940004460513592 0.012419642880558968
v -0.0003015551483258605 0.00407823221758008 0.012988089583814144
v -0.00065819092560559511 0.0032188068144023418 0.012548639439046383
v -0.0012255684705451131 0.0039170756936073303 0.013037895783782005
v -0.0017769649857655168 0.0027728315908461809 0.012620175257325172
v -0.0033451772760599852 0.0023157685063779354 0.013170131482183933
v -0.0030914233066141605 0.00095289037562906742 0.012765365652740002
v -0.003220751415938139 5.3083849707036279e-06 0.012824726291000843
v -0.0024691619910299778 -0.0019888367969542742 0.012958173640072346
v 5.5210493883350864e-05 -0.0031263348646461964 0.013136873953044415
v 0.001221939455717802 -0.0028708451427519321 0.013209212571382523
v 0.0029314497951418161 -0.0026570216286927462 0.013769619166851044
v 0.0021845211740583181 -0.0022466469090431929 0.013280123472213745
v 0.0027899551205337048 -0.0014458795776590705 0.013345652259886265
v 0.0031448379158973694 0.00061265629483386874 0.013480993919074535
v 0.0028307009488344193 0.0015378482639789581 0.013537175022065639
v 0.001201401581056416 0.0039130388759076595 0.014161901548504829
v 0.0010307934135198593 0.0031082963105291128 0.013691470958292484
v -5.1868661103071645e-05 0.0032865053508430719 0.013755759224295616
v -0.0014768326655030251 0.002919360063970089 0.013849970884621143
v -0.0021204676013439894 0.0024963882751762867 0.013900146819651127
v -0.0032038092613220215 -0.00023884745314717293 0.01408765185624361
v -0.0038500705268234015 -0.0010958517668768764 0.014596316032111645
v -0.001463181572034955 -0.0027743661776185036 0.01429191417992115
v 0.0010496331378817558 -0.0029349178075790405 0.014448521658778191
v 0.0031021148897707462 -0.0006149053224362433 0.014650270342826843
v 0.0038968860171735287 -0.00078149425098672509 0.015120093710720539
v 0.003179935971274972 0.00032389146508648992 0.014712040312588215
v 0.0032898534554988146 0.0023533119820058346 0.015283073298633099
v 0.0024144577328115702 0.0021673289593309164 0.014834243804216385
v 0.0014557244721800089 0.0029377657920122147 0.01491256058216095
v 0.0028490163385868073 -0.0027353563345968723 0.010009399615228176
v 0.0039202547632157803 0.00088065082672983408 0.010203941725194454
v 0.0023418653290718794 0.003328950610011816 0.01034916564822197
v 0.0015450252685695887 0.0037695944774895906 0.010395473800599575
v -0.002058536047115922 0.0035328355152159929 0.010582574643194675
v -0.0039754277095198631 0.00080539839109405875 0.010752459056675434
v -0.0031096169259399176 -0.0024578738957643509 0.010925949551165104
v -0.0024378006346523762 -0.0031148770358413458 0.010971395298838615
v -0.00018942986207548529 -0.0039225346408784389 0.011091779917478561
v 0.00087781233014538884 -0.0038248279597610235 0.011144358664751053
v 0.0031289458274841309 -0.0024174237623810768 0.011273370124399662
v 0.0036432361230254173 -0.0015388444298878312 0.011329326778650284
v 0.00015246904513332993 0.004099065437912941 0.011720418930053711
v -0.0034638345241546631 0.0021530466619879007 0.011933592148125172
v -0.003883009310811758 -0.0010517612099647522 0.012100882828235626
v -0.0015182808274403214 -0.0036559207364916801 0.012273680418729782
v 0.0025600995868444443 -0.0030038547702133656 0.012489939108490944
v 0.0039776354096829891 0.00047829459072090685 0.012684366665780544
v 0.0019616261124610901 0.0035740050952881575 0.012872712686657906
v -0.0037841708399355412 0.0014484071871265769 0.013221172615885735
v -0.0039986795745790005 0.00053084571845829487 0.013267901726067066
v -0.0033582313917577267 -0.0021398912649601698 0.013401327654719353
v -0.00072193396044895053 -0.0038725263439118862 0.013558564707636833
v 0.00074491533450782299 -0.0038671584334224463 0.013642985373735428
v 0.0036134347319602966 -0.0016098893247544765 0.013826236128807068
v 0.0037145004607737064 0.0015818763058632612 0.013991080224514008
v 9.9479038908611983e-05 0.0040869512595236301 0.014221885241568089
v -0.0019984908867627382 0.0035693689715117216 0.014322409406304359
v -0.0029324847273528576 0.0028417520225048065 0.014389021322131157
v -0.0040096146985888481 -0.00019013445125892758 0.014554050751030445
v -0.0024160139728337526 -0.0031349763739854097 0.014722583815455437
v -0.0014008656144142151 -0.0036774391774088144 0.014781077392399311
v 0.0013014853466302156 -0.0037086843512952328 0.014917586930096149
v 0.0027254668530076742 0.002999850083142519 0.015325812622904778
v -0.00038199979462660849 0.0040761898271739483 0.015493410639464855
v 0.00064834911609068513 0.0040369387716054916 0.015443643555045128
v -0.0026845403481274843 0.0030988806392997503 0.015620695427060127
v 0.0031917768064886332 -0.00010129469592357054 0.012024614028632641
v 0.002943235682323575 0.00133988365996629 0.010867376811802387
v 0.0031886643264442682 3.9717924664728343e-05 0.010786219500005245
v 0.0030149074736982584 -0.00092647172277793288 0.010723455809056759
v 0.002586073474958539 -0.0017734570428729057 0.010665747337043285
v 0.0018985683564096689 -0.002482804236933589 0.010603121481835842
v 0.0010993138421326876 -0.0029112282209098339 0.010547167621552944
v 0.00015063876344356686 -0.003113077487796545 0.010487924329936504
v -0.0011130458442494273 -0.0029365506488829851 0.010406509973108768
v -0.0021341792307794094 -0.0023157868999987841 0.010332302190363407
v -0.0027272794395685196 -0.0016158700454980135 0.010272379964590073
v -0.0031163382809609175 -0.00069723534397780895 0.0102129727602005
v 0.0028433806728571653 -0.0013630653265863657 0.011943187564611435
v 0.0022930952254682779 -0.0021254760213196278 0.011885164305567741
v 0.0018045508768409491 -0.0025415834970772266 0.011845499277114868
v 0.00093034846941009164 -0.0029777707532048225 0.011783041059970856
v -4.4857537432108074e-05 -0.0031111321877688169 0.011725302785634995
v -0.0010120668448507786 -0.0029638698324561119 0.011660339310765266
v -0.0019037530291825533 -0.0024961887393146753 0.011601012200117111
v -0.0026868607383221388 -0.0016950545832514763 0.011528177186846733
v -0.0031487459782510996 -0.00058872601948678493 0.011454138904809952
v -0.0031903432682156563 0.00046291446778923273 0.011390205472707748
v -0.0028877884615212679 0.001517436234280467 0.011318890377879143
v -0.0022136527113616467 0.0024004701990634203 0.011252239346504211
v -0.0014116945676505566 0.0029676600825041533 0.011193536221981049
v -0.00028786482289433479 0.0032735816203057766 0.011118738912045956
v 0.00067396601662039757 0.0032017084304243326 0.011060125194489956
v 0.0015123195480555296 0.0028917633462697268 0.011000625789165497
v 0.0022603748366236687 0.0023341362830251455 0.010941273532807827
v -0.00025518523762002587 -0.0031053740531206131 0.014210116118192673
v 0.00074697635136544704 -0.0030246481765061617 0.014271941967308521
v 0.0017592330696061254 -0.0025867768563330173 0.0143404146656394
v 0.0024421501439064741 -0.0019574810285121202 0.014400510117411613
v 0.002954856026917696 -0.0011186868650838733 0.014459653757512569
v 0.0031761955469846725 -0.00011714168795151636 0.014524196274578571
v 0.0030549690127372742 0.0010288710473105311 0.014595489948987961
v 0.0025167702697217464 0.0020301272161304951 0.014667905867099762
v 0.0017304564826190472 0.0027822700794786215 0.014740969054400921
v 0.00067436008248478174 0.0032054681796580553 0.014806544408202171
v -0.00033174475538544357 0.0032682053279131651 0.014869570732116699
v 0.0023978657554835081 -0.0020190444774925709 0.0131464758887887
v 0.0029529903549700975 -0.0011125312885269523 0.013208987191319466
v 0.0031490654218941927 -0.00033464404987171292 0.013261703774333
v 0.0031648087315261364 0.00041510365554131567 0.013309500180184841
v 0.0028252105694264174 0.0015917380806058645 0.013382911682128906
v 0.0020429238211363554 0.0025375406257808208 0.013463460840284824
v 0.001060133334249258 0.00309786107391119 0.013531915843486786
v -0.00014341503265313804 0.003295189468190074 0.013610308058559895
v -0.0014047155855223536 0.0029710680246353149 0.013689731247723103
v -0.0024515653494745493 0.002182377502322197 0.013769103214144707
v -0.0030122972093522549 0.0011993038933724165 0.013843593187630177
v -0.0032240371219813824 0.00013126028352417052 0.01390728447586298
v -0.0029636640101671219 -0.0011839134385809302 0.013992689549922943
v -0.0024213248398154974 -0.002018138999119401 0.014055070467293262
v -0.0017428541323170066 -0.0026104934513568878 0.014113280922174454
v -0.00098455557599663734 -0.0029560602270066738 0.014163261279463768
v 0.0030587795190513134 0.00096341670723631978 0.012091880664229393
v 0.0026855245232582092 0.0017955248476937413 0.012151786126196384
v 0.0019284089794382453 0.0026393008884042501 0.012222080491483212
v 0.0009730961755849421 0.0031198186334222555 0.012288741767406464
v 0.00024873777874745429 0.0032651335932314396 0.012333557941019535
v -0.00075940147507935762 0.0032048644497990608 0.012396485544741154
v -0.0017726968508213758 0.0027540687005966902 0.012465210631489754
v -0.0024222615174949169 0.0021887912880629301 0.012519611977040768
v -0.0028893596027046442 0.0014781065983697772 0.012572973035275936
v -0.0031544785015285015 0.00067859847331419587 0.012626237235963345
v -0.003193762619048357 -0.00032943038968369365 0.012694244273006916
v -0.0028481141198426485 -0.0014093588106334209 0.012761199846863747
v -0.0020827297121286392 -0.002378043020144105 0.012832889333367348
v -0.0011179572902619839 -0.0029184338636696339 0.012904426082968712
v -0.00012197142496006563 -0.003115806495770812 0.01296903844922781
v 0.00092609081184491515 -0.002973801689222455 0.01303588505834341
v 0.0016954434104263783 -0.0026140171103179455 0.013086200691759586
v -0.0013949348358437419 0.0029724687337875366 0.014938767068088055
v 0.00049109198153018951 0.0040554646402597427 0.014356775209307671
v 0.00070825224975124002 -0.0038536395877599716 0.013794297352433205
v -0.0021305026020854712 -0.0033247442916035652 0.013648015446960926
v 0.0021234368905425072 0.0034670215100049973 0.013019976206123829
v -0.0013359682634472847 -0.0037121891509741545 0.01243659108877182
v -4.9071673856815323e-05 0.004092872142791748 0.011883558705449104
v 0.0033738904166966677 0.0022117984481155872 0.011680755764245987
v 0.0040000574663281441 -0.00011090503539890051 0.011566427536308765
v 0.0037335250526666641 -0.0013277973048388958 0.011497683823108673
v -0.0021226434037089348 -0.0033306169789284468 0.011147459037601948
v -0.0040216515772044659 -0.0001957458007382229 0.010957684367895126
v -0.0019159633666276932 0.0036068642511963844 0.010729460977017879
v 0.0039786496199667454 0.00054724368965253234 0.010342140682041645
v 0.0028795101679861546 -0.0027046224568039179 0.010163475759327412
v 7.6574979175347835e-05 -0.003920386079698801 0.010012787766754627
v -0.00093918689526617527 -0.0038221206050366163 0.0099622271955013275
v -0.0037202173843979836 -0.0014451990136876702 0.0097703617066144943
v -0.0005019555683247745 0.0040653981268405914 0.014405757188796997
v 0.0033332123421132565 0.0023123214486986399 0.014189127832651138
v 0.0039701214991509914 -0.00044856866588816047 0.014044485054910183
v 0.0035950432065874338 -0.0016571637243032455 0.01398069504648447
v 0.0016359476139768958 -0.0035723992623388767 0.013839676044881344
v -0.0040264921262860298 0.00038015053723938763 0.013433413580060005
v -0.0023064920678734779 0.0033690754789859056 0.013252845965325832
v 0.0011185912881046534 0.0039408146403729916 0.013070142827928066
v 0.0039411359466612339 0.00071836059214547276 0.012854218482971191
v 0.0028693133499473333 -0.002690507099032402 0.012666684575378895
v -0.00025519792689010501 -0.0039151762612164021 0.012494985014200211
v -0.0034294642973691225 0.0022032773122191429 0.012081855908036232
v -0.0010231629712507129 0.0039600064046680927 0.011930915527045727
v 0.0027663263026624918 0.0029730307869613171 0.011727176606655121
v 0.0016534033929929137 -0.0035637356340885162 0.011338973417878151
v -0.0028308588080108166 0.0029539179522544146 0.010785618796944618
v 0.0015271531883627176 0.00379200279712677 0.010552258230745792
v 0.0036157271824777126 0.0017878845101222396 0.010402985848486423
v -0.0032495043706148863 -0.0022788683418184519 0.0098185101523995399
v 0.0036774871405214071 -0.0014951504999771714 0.015237166546285152
v -0.00023675974807702005 0.0040943571366369724 0.015642385929822922
v -0.0037917736917734146 0.0014630565419793129 0.0096215745434165001
v -0.0040053613483905792 0.00041215863893739879 0.0096779214218258858
v -0.0025302432477474213 0.0032154833897948265 0.0095166759565472603
v -0.001312471809796989 0.0038876694161444902 0.0094489539042115211
v -0.0016067834803834558 0.0037697965744882822 0.015713848173618317
v 0.00082333898171782494 0.0039997315034270287 0.01558984536677599
v 0.0018460015999153256 0.0036404205020517111 0.015537314116954803
v 0.002679889090359211 0.0030422513373196125 0.015486404299736023
v 0.0033665946684777737 0.0022510462440550327 0.015431833453476429
v 0.003907439298927784 0.00095908512594178319 0.015364357270300388
v 0.0039759487845003605 -0.00032193723018281162 0.015298773534595966
v 0.0031366411130875349 -0.0023865594994276762 0.015186569653451443
v -0.0035595893859863281 -0.0017966178711503744 0.014788767322897911
v -0.0039821728132665157 -0.00057634635595604777 0.014727892354130745
v -0.0036360917147248983 0.001830748631618917 0.01460736058652401
v -0.0032389857806265354 0.0024684953968971968 0.0095706293359398842
v -0.0039941980503499508 -0.00040221161907538772 0.009720897302031517
v -0.0025579142384231091 -0.0030257315374910831 0.0098697897046804428
v -0.0016949971904978156 -0.0035495066549628973 0.0099200308322906494
v 0.0011334994342178106 -0.0037637639325112104 0.010061981156468391
v 0.0020366257522255182 -0.0033557016868144274 0.010112538002431393
v 0.0039245053194463253 -0.00065251084743067622 0.010282439179718494
v 0.0035860675852745771 -0.0016831477405503392 0.010229647159576416
v 0.0028390740044414997 0.0029231901280581951 0.010474517941474915
v 0.00015551559044979513 0.0041002565994858742 0.010625856928527355
v -0.0011116203386336565 0.0039367428980767727 0.010688380338251591
v -0.0035562645643949509 0.0019630182068794966 0.010847413912415504
v -0.0039309212006628513 0.00097137171542271972 0.010899282991886139
v -0.0037373967934399843 -0.0014128814218565822 0.011019707657396793
v -0.0030675674788653851 -0.0025349496863782406 0.011082625016570091
v -0.00097032578196376562 -0.0038177995011210442 0.011204742826521397
v 0.00039626695797778666 -0.0039167096838355064 0.011276125907897949
v 0.0031258522067219019 -0.0024192165583372116 0.011435926891863346
v 0.0024129417724907398 -0.0030989942606538534 0.011385904625058174
v 0.0038133845664560795 0.0012988742673769593 0.011631211265921593
v 0.0019182055257260799 0.0035938350483775139 0.011779814027249813
v 0.00099934719037264585 0.0039613861590623856 0.011830947361886501
v -0.0018319498049095273 0.0036564923357218504 0.011974398046731949
v -0.0026558730751276016 0.0030996648129075766 0.01202387735247612
v -0.0038673938252031803 0.001182868261821568 0.012139535509049892
v -0.0040321960113942623 0.00011417840141803026 0.012193921953439713
v -0.0038064110558480024 -0.0012498133582994342 0.012258619070053101
v -0.0030992839019745588 -0.0024963044561445713 0.01233719103038311
v -0.0021652055438607931 -0.0033008684404194355 0.012394770048558712
v 0.00080839026486501098 -0.0038471787702292204 0.012549695558845997
v 0.0020916429348289967 -0.0033423071727156639 0.012617709115147591
v 0.0034288496244698763 -0.0019725097808986902 0.012710005976259708
v 0.0038392457645386457 -0.0010147145949304104 0.012763736769556999
v 0.0039816391654312611 -0.00016418579616583884 0.012806774117052555
v 0.0036388954613357782 0.0017372849397361279 0.012903504073619843
v 0.0029522432014346123 0.0027908866759389639 0.012963340617716312
v -0.00010831534746102989 0.0040910155512392521 0.013138609938323498
v -0.0012844668235629797 0.0038980559911578894 0.013194468803703785
v -0.0030864081345498562 0.0026709150988608599 0.013303560204803944
v -0.0037400517612695694 0.0015853266231715679 0.01337017398327589
v -0.0039212461560964584 -0.00081671582302078605 0.013489192351698875
v -0.0035865344107151031 -0.0017397064948454499 0.013536912389099598
v -0.0030332589522004128 -0.0025632712058722973 0.013590407557785511
v -0.0011480713728815317 -0.0037614509928971529 0.013697057962417603
v -0.00014399498468264937 -0.0039230785332620144 0.01375320740044117
v 0.0024149748496711254 -0.0030972857493907213 0.013886409811675549
v 0.0030085339676588774 -0.0025478366296738386 0.013928296975791454
v 0.0039132507517933846 0.00091991119552403688 0.014108248054981232
v 0.0023455340415239334 0.0033316928893327713 0.014256134629249573
v 0.0013379473239183426 0.0038553578779101372 0.014311118982732296
v -0.0016610356979072094 0.0037477265577763319 0.014464165084064007
v -0.0027880857232958078 0.0029960002284497023 0.014537669718265533
v -0.0039869495667517185 0.00062534515745937824 0.014664651826024055
v -0.002829073229804635 -0.0027830300386995077 0.014849522151052952
v -0.0017105527222156525 -0.0035616776440292597 0.014919762499630451
v -0.00045812432654201984 -0.0039040895644575357 0.014984561130404472
v 0.00076179089955985546 -0.0038567930459976196 0.015045261941850185
v 0.0017260095337405801 -0.0035218384582549334 0.015095025300979614
v 0.0024893521331250668 -0.0030449258629232645 0.015141597017645836
f 2 6 1
f 126 8 9
f 344 272 273
f 1 16 2
f 29 28 18
f 9 7 4
f 17 14 13
f 17 15 14
f 19 20 18
f 11 22 12
f 21 12 22
f 11 12 14
f 23 21 114
f 25 24 26
f 18 28 19
f 25 26 27
f 170 171 335
f 101 55 29
f 101 27 55
f 10 6 5
f 360 196 194
f 30 31 33
f 25 32 24
f 452 217 308
f 33 37 30
f 36 35 34
f 36 37 35
f 496 266 199
f 39 3 40
f 63 39 40
f 323 192 270
f 37 109 116
f 58 59 66
f 120 111 14
f 101 102 107
f 46 53 54
f 134 343 249
f 57 63 40
f 55 49 51
f 127 111 120
f 126 118 125
f 36 106 109
f 193 194 195
f 29 102 101
f 362 361 427
f 477 347 346
f 381 519 436
f 332 291 290
f 180 286 330
f 187 276 325
f 78 80 77
f 48 63 56
f 85 309 84
f 464 340 304
f 81 73 82
f 492 403 404
f 172 294 333
f 399 514 420
f 45 72 87
f 375 516 439
f 45 88 72
f 487 360 359
f 456 238 239
f 452 216 217
f 42 92 91
f 223 398 397
f 351 235 255
f 44 94 93
f 386 387 504
f 495 199 320
f 90 236 307
f 96 95 41
f 119 249 343
f 71 96 48
f 119 250 249
f 56 97 71
f 57 97 56
f 57 98 97
f 69 98 57
f 107 108 101
f 43 44 42
f 64 54 53
f 113 124 129
f 495 408 409
f 118 126 9
f 47 41 35
f 122 121 123
f 43 42 26
f 55 50 49
f 287 288 180
f 59 62 10
f 265 264 320
f 9 119 118
f 29 104 103
f 53 46 45
f 144 529 143
f 370 451 371
f 352 474 473
f 116 130 139
f 143 102 103
f 151 462 150
f 481 369 368
f 130 109 140
f 142 141 107
f 385 503 502
f 102 143 142
f 144 143 103
f 450 248 311
f 104 145 144
f 115 147 146
f 148 147 124
f 482 312 214
f 110 149 112
f 112 149 148
f 111 151 150
f 111 152 151
f 125 153 152
f 118 153 125
f 118 154 153
f 118 119 154
f 414 422 413
f 331 178 179
f 516 287 180
f 239 97 98
f 71 97 238
f 96 71 240
f 436 175 332
f 242 95 96
f 449 208 316
f 94 95 237
f 438 178 331
f 345 430 346
f 243 92 93
f 335 171 296
f 245 91 92
f 32 34 24
f 505 189 190
f 255 316 208
f 250 137 136
f 85 64 86
f 173 294 172
f 301 222 302
f 456 239 98
f 390 421 389
f 318 257 256
f 273 271 324
f 338 167 299
f 99 139 138
f 204 232 205
f 388 506 505
f 339 300 166
f 228 184 328
f 260 259 233
f 83 58 65
f 292 294 293
f 528 142 143
f 396 512 511
f 233 257 206
f 383 418 382
f 393 510 509
f 56 63 57
f 271 273 272
f 102 142 107
f 157 341 158
f 129 115 114
f 388 443 387
f 217 86 308
f 522 417 132
f 360 487 486
f 92 244 245
f 76 77 75
f 491 204 205
f 291 332 175
f 484 210 212
f 464 147 148
f 212 252 312
f 428 483 365
f 396 513 512
f 235 316 255
f 67 41 47
f 413 422 499
f 371 451 479
f 26 42 50
f 186 281 326
f 369 481 480
f 279 280 278
f 525 141 526
f 165 167 338
f 188 276 187
f 502 384 385
f 297 169 336
f 77 458 459
f 354 473 453
f 386 504 503
f 174 176 175
f 342 306 159
f 216 309 85
f 177 179 178
f 343 155 158
f 325 276 275
f 380 436 379
f 364 428 365
f 326 327 282
f 251 214 312
f 489 358 357
f 382 418 520
f 34 32 36
f 253 211 313
f 169 171 170
f 156 155 132
f 72 218 308
f 287 331 289
f 271 272 191
f 403 492 491
f 311 78 76
f 75 74 76
f 89 307 219
f 479 345 372
f 494 406 407
f 387 443 504
f 262 204 319
f 281 186 185
f 329 227 181
f 417 521 435
f 26 50 55
f 393 509 441
f 440 394 395
f 469 139 468
f 337 338 299
f 261 232 204
f 215 83 246
f 339 163 300
f 302 161 301
f 74 75 58
f 354 434 355
f 36 107 106
f 351 433 352
f 285 329 330
f 268 198 197
f 295 172 334
f 467 162 163
f 366 265 201
f 508 185 279
f 524 337 168
f 437 177 178
f 370 261 262
f 95 242 237
f 507 277 187
f 398 399 420
f 355 213 211
f 438 331 287
f 420 181 183
f 464 304 160
f 285 415 414
f 359 194 270
f 345 233 259
f 443 190 324
f 498 268 197
f 502 271 191
f 299 399 398
f 280 406 405
f 365 201 200
f 451 310 309
f 300 375 374
f 480 215 246
f 423 203 319
f 470 133 135
f 79 80 78
f 305 381 380
f 221 380 379
f 145 115 146
f 431 219 307
f 222 377 376
f 432 244 243
f 306 382 381
f 475 245 244
f 227 414 413
f 18 105 29
f 297 396 395
f 481 311 247
f 296 393 392
f 4 3 39
f 428 212 312
f 427 209 314
f 226 390 389
f 480 247 215
f 450 214 248
f 91 49 50
f 104 144 103
f 70 98 69
f 179 387 386
f 451 246 310
f 479 309 216
f 166 374 373
f 430 308 218
f 138 139 469
f 468 168 298
f 442 187 325
f 448 205 260
f 274 401 400
f 500 193 195
f 188 404 403
f 280 407 406
f 474 243 237
f 282 409 408
f 426 258 318
f 284 412 411
f 354 211 253
f 228 411 410
f 74 247 76
f 489 317 208
f 348 234 256
f 288 384 416
f 383 157 417
f 156 417 157
f 252 81 251
f 81 79 251
f 132 131 133
f 88 51 89
f 363 362 485
f 349 348 431
f 457 82 73
f 526 165 338
f 521 334 172
f 60 58 75
f 460 153 154
f 153 460 152
f 455 152 460
f 455 151 152
f 223 397 396
f 422 195 322
f 164 376 375
f 80 456 471
f 511 395 396
f 473 237 242
f 147 466 146
f 210 211 212
f 470 170 335
f 220 383 382
f 82 457 456
f 478 348 347
f 432 351 475
f 184 283 327
f 331 179 289
f 84 64 85
f 398 513 397
f 134 133 131
f 361 486 427
f 320 201 265
f 358 489 449
f 322 196 269
f 70 458 471
f 402 491 448
f 314 254 253
f 200 266 321
f 467 144 145
f 356 426 488
f 493 405 406
f 445 414 500
f 145 454 467
f 374 515 373
f 256 317 318
f 379 436 518
f 391 507 442
f 290 177 332
f 508 391 392
f 145 466 454
f 263 319 203
f 23 51 45
f 168 224 298
f 524 468 139
f 120 14 15
f 317 256 234
f 527 526 141
f 490 400 401
f 259 260 205
f 352 433 474
f 214 79 248
f 209 254 314
f 266 200 199
f 162 164 163
f 138 469 523
f 384 501 416
f 216 86 217
f 389 421 506
f 294 292 333
f 23 45 46
f 269 198 268
f 36 109 37
f 315 235 209
f 130 525 524
f 133 134 136
f 206 257 258
f 23 46 21
f 68 57 40
f 220 342 341
f 84 309 310
f 278 277 279
f 247 74 215
f 344 426 356
f 485 313 210
f 394 440 510
f 64 84 65
f 374 375 439
f 64 17 54
f 141 106 107
f 113 110 112
f 408 446 407
f 91 236 90
f 292 293 226
f 199 201 320
f 277 188 187
f 277 278 188
f 373 515 514
f 405 423 404
f 134 250 136
f 525 130 140
f 402 448 401
f 350 476 475
f 367 450 368
f 218 88 219
f 160 303 161
f 76 247 311
f 87 308 86
f 485 314 313
f 98 471 456
f 366 482 450
f 528 163 339
f 465 160 161
f 492 319 204
f 518 332 177
f 454 302 162
f 350 255 207
f 527 339 165
f 501 323 193
f 369 262 263
f 522 335 334
f 466 161 302
f 469 298 336
f 461 342 159
f 460 343 158
f 507 279 277
f 519 292 174
f 355 252 213
f 523 336 169
f 519 174 175
f 276 403 402
f 512 328 184
f 455 341 342
f 148 124 112
f 435 172 333
f 418 333 292
f 496 321 266
f 455 158 341
f 353 253 254
f 490 260 206
f 504 324 271
f 470 169 170
f 273 400 344
f 361 269 196
f 372 259 232
f 347 256 257
f 506 325 189
f 367 231 265
f 472 240 238
f 110 150 149
f 510 326 281
f 509 281 185
f 150 463 149
f 440 327 326
f 366 365 483
f 487 316 315
f 81 82 79
f 346 257 233
f 94 44 95
f 463 159 340
f 363 267 230
f 283 410 409
f 439 180 330
f 440 184 327
f 96 41 48
f 357 270 192
f 515 330 329
f 514 329 181
f 494 320 264
f 488 318 317
f 303 379 378
f 188 405 404
f 91 245 236
f 447 202 203
f 476 307 236
f 497 197 321
f 356 192 272
f 362 198 269
f 364 200 267
f 513 183 328
f 352 254 235
f 525 338 337
f 499 322 268
f 517 377 438
f 444 191 323
f 363 230 198
f 371 232 261
f 225 395 394
f 173 392 391
f 94 237 243
f 179 386 385
f 290 388 387
f 293 391 390
f 38 123 121
f 176 389 388
f 33 67 47
f 5 59 10
f 289 385 384
f 425 206 258
f 186 408 407
f 349 207 234
f 453 242 241
f 434 241 240
f 229 402 401
f 478 218 219
f 493 264 202
f 286 416 415
f 368 263 231
f 301 378 377
f 475 236 245
f 167 373 399
f 310 83 84
f 171 394 393
f 182 413 412
f 486 315 209
f 100 250 117
f 458 61 459
f 62 459 61
f 62 60 459
f 287 289 288
f 34 43 24
f 43 26 24
f 32 108 36
f 129 114 22
f 113 22 11
f 59 5 2
f 4 128 9
f 127 15 1
f 7 68 3
f 67 33 31
f 43 34 35
f 123 38 30
f 68 7 8
f 21 54 12
f 16 59 2
f 17 66 16
f 13 54 17
f 6 127 1
f 20 52 23
f 202 263 203
f 22 113 129
f 28 52 19
f 121 39 38
f 15 127 120
f 27 108 25
f 47 35 33
f 430 452 308
f 16 1 15
f 428 484 212
f 15 17 16
f 6 2 5
f 9 8 7
f 29 55 28
f 114 18 20
f 126 10 8
f 20 23 114
f 30 38 31
f 4 7 3
f 63 31 38
f 38 39 63
f 10 126 6
f 294 173 391
f 136 137 135
f 212 211 213
f 14 12 13
f 22 114 21
f 400 425 344
f 58 60 59
f 392 441 508
f 127 126 125
f 39 99 100
f 114 115 104
f 134 131 343
f 10 62 61
f 35 41 44
f 29 103 102
f 119 9 128
f 268 322 269
f 77 80 458
f 305 159 306
f 301 303 378
f 464 463 340
f 155 157 158
f 141 140 106
f 220 157 383
f 430 477 346
f 456 457 238
f 457 472 238
f 452 479 216
f 296 171 393
f 119 117 250
f 71 238 240
f 150 110 111
f 23 52 51
f 117 119 128
f 415 416 501
f 65 66 17
f 67 63 48
f 14 111 110
f 43 35 44
f 52 55 51
f 100 117 39
f 8 61 70
f 378 437 377
f 313 211 210
f 59 60 62
f 29 105 104
f 475 351 350
f 144 467 529
f 411 498 497
f 482 366 483
f 477 478 347
f 493 406 494
f 151 461 462
f 527 141 142
f 214 251 79
f 167 166 373
f 288 289 384
f 482 483 312
f 469 468 298
f 364 484 428
f 276 188 403
f 342 220 306
f 219 88 89
f 438 437 178
f 383 435 418
f 300 163 164
f 121 122 99
f 418 435 333
f 528 529 163
f 241 242 96
f 484 485 210
f 500 501 193
f 492 423 319
f 285 227 329
f 270 194 193
f 265 231 264
f 132 133 470
f 318 258 257
f 450 367 366
f 305 221 304
f 99 122 139
f 369 480 370
f 8 10 61
f 138 137 99
f 437 379 518
f 489 357 488
f 267 197 230
f 393 394 510
f 393 441 392
f 362 427 485
f 262 319 263
f 355 472 73
f 189 229 190
f 129 124 115
f 388 505 443
f 522 521 417
f 292 226 174
f 284 228 328
f 352 473 353
f 464 465 147
f 218 72 88
f 252 212 213
f 195 194 196
f 180 288 286
f 410 496 409
f 311 248 78
f 184 228 283
f 67 48 41
f 39 121 99
f 414 445 422
f 411 497 410
f 304 221 160
f 476 349 431
f 53 45 87
f 525 140 141
f 168 223 224
f 284 328 183
f 136 135 133
f 162 222 164
f 354 353 473
f 385 386 503
f 84 83 65
f 301 161 303
f 284 181 182
f 316 235 315
f 33 35 37
f 297 298 224
f 384 444 501
f 248 79 78
f 459 75 77
f 405 447 423
f 317 234 208
f 298 297 336
f 105 114 104
f 199 200 201
f 360 486 361
f 275 229 189
f 168 337 223
f 472 457 73
f 86 64 53
f 89 90 307
f 484 363 485
f 262 261 204
f 159 305 340
f 264 231 202
f 302 222 162
f 494 407 446
f 376 516 375
f 139 122 116
f 140 109 106
f 116 109 130
f 511 440 395
f 36 108 107
f 351 432 433
f 522 132 470
f 68 8 70
f 295 173 172
f 421 442 325
f 508 441 185
f 503 504 271
f 511 512 184
f 349 350 207
f 499 422 322
f 366 367 265
f 100 99 137
f 351 352 235
f 440 511 184
f 70 61 458
f 446 495 320
f 495 496 199
f 369 370 262
f 505 506 189
f 358 359 270
f 445 500 195
f 502 503 271
f 291 176 388
f 368 369 263
f 80 82 456
f 371 372 232
f 93 42 44
f 501 444 323
f 372 345 259
f 278 280 405
f 365 366 201
f 164 222 376
f 423 447 203
f 221 305 380
f 145 104 115
f 431 478 219
f 215 74 83
f 222 301 377
f 91 50 42
f 432 475 244
f 306 220 382
f 290 291 388
f 227 285 414
f 490 424 260
f 485 427 314
f 123 30 37
f 481 429 311
f 40 3 68
f 429 450 311
f 297 224 396
f 171 225 394
f 226 293 390
f 425 490 206
f 284 182 412
f 480 481 247
f 450 482 214
f 91 90 49
f 70 471 98
f 179 290 387
f 224 223 396
f 451 480 246
f 223 299 398
f 92 243 244
f 274 229 401
f 280 186 407
f 424 448 260
f 95 44 41
f 97 239 238
f 474 433 243
f 443 505 190
f 299 167 399
f 448 491 205
f 283 228 410
f 449 489 208
f 486 487 315
f 489 488 317
f 436 519 175
f 529 467 163
f 173 295 392
f 209 235 254
f 252 251 312
f 323 270 193
f 510 440 326
f 504 443 324
f 491 492 204
f 422 445 195
f 401 424 490
f 325 275 189
f 354 453 434
f 138 135 137
f 473 474 237
f 71 48 56
f 152 111 125
f 520 418 292
f 360 361 196
f 479 451 309
f 403 491 402
f 390 442 421
f 356 357 192
f 358 449 359
f 493 447 405
f 83 74 58
f 68 70 69
f 368 429 481
f 398 420 513
f 208 234 207
f 381 436 380
f 339 166 165
f 529 528 143
f 223 337 299
f 322 195 196
f 76 78 77
f 285 330 286
f 370 480 451
f 345 452 430
f 417 435 383
f 524 139 130
f 507 391 508
f 348 478 431
f 442 507 187
f 374 419 515
f 388 389 506
f 148 149 464
f 368 450 429
f 500 414 415
f 519 381 520
f 145 146 466
f 116 123 37
f 377 437 438
f 156 157 155
f 492 404 423
f 87 72 308
f 185 280 279
f 190 274 324
f 202 231 263
f 359 449 487
f 335 296 334
f 377 517 376
f 513 396 397
f 472 355 434
f 471 458 80
f 282 327 283
f 186 326 282
f 374 439 419
f 127 125 111
f 26 55 27
f 157 220 341
f 165 166 167
f 191 272 192
f 363 484 364
f 291 175 176
f 273 324 274
f 185 186 280
f 87 86 53
f 181 227 182
f 296 295 334
f 499 498 412
f 255 208 207
f 190 229 274
f 123 116 122
f 68 69 57
f 412 413 499
f 260 233 206
f 344 425 426
f 340 305 304
f 528 527 142
f 384 502 444
f 183 181 284
f 500 415 501
f 401 448 424
f 379 437 378
f 411 412 498
f 169 225 171
f 113 112 124
f 174 226 176
f 93 94 243
f 113 14 110
f 496 410 497
f 198 230 197
f 297 225 169
f 371 479 372
f 357 356 488
f 495 446 408
f 88 45 51
f 323 191 192
f 381 382 520
f 267 200 321
f 65 58 66
f 373 514 399
f 259 205 232
f 343 131 155
f 117 128 39
f 425 400 490
f 134 249 250
f 160 221 303
f 496 495 409
f 470 135 523
f 516 376 517
f 350 349 476
f 391 442 390
f 321 197 267
f 64 65 17
f 132 155 131
f 90 89 51
f 314 253 313
f 90 51 49
f 526 527 165
f 515 419 330
f 462 461 159
f 527 528 339
f 512 513 328
f 346 347 257
f 363 364 267
f 496 497 321
f 466 465 161
f 352 353 254
f 460 154 343
f 507 508 279
f 519 520 292
f 355 73 252
f 516 517 287
f 439 516 180
f 523 469 336
f 468 524 168
f 73 81 252
f 435 521 172
f 437 518 177
f 509 510 281
f 285 286 415
f 459 60 75
f 522 470 335
f 347 348 256
f 521 522 334
f 240 241 96
f 455 460 158
f 417 156 132
f 357 358 270
f 467 454 162
f 154 119 343
f 524 525 337
f 470 523 169
f 273 274 400
f 525 526 338
f 454 466 302
f 506 421 325
f 465 464 160
f 364 365 200
f 367 368 231
f 289 179 385
f 472 434 240
f 151 455 461
f 348 349 234
f 150 462 463
f 419 439 330
f 216 85 86
f 441 509 185
f 463 462 159
f 353 354 253
f 420 514 181
f 350 351 255
f 517 438 287
f 494 446 320
f 488 426 318
f 186 282 408
f 188 278 405
f 447 493 202
f 476 431 307
f 497 498 197
f 361 362 269
f 359 360 194
f 138 523 135
f 137 250 100
f 477 430 218
f 514 515 329
f 344 356 272
f 461 455 342
f 513 420 183
f 275 276 402
f 362 363 198
f 444 502 191
f 345 346 233
f 295 296 392
f 79 82 80
f 427 486 209
f 293 294 391
f 483 428 312
f 147 115 124
f 13 12 54
f 286 288 416
f 487 449 316
f 426 425 258
f 370 371 261
f 228 284 411
f 229 275 402
f 479 452 345
f 465 466 147
f 453 473 242
f 434 453 241
f 303 221 379
f 305 306 381
f 478 477 218
f 433 432 243
f 493 494 264
f 475 476 236
f 93 92 42
f 498 499 268
f 166 300 374
f 310 246 83
f 225 297 395
f 300 164 375
f 182 227 413
f 282 283 409
f 463 464 149
f 354 355 211
f 518 436 332
f 32 25 108
f 21 46 54
f 6 126 127
f 176 226 389
f 31 63 67
f 27 101 108
f 11 14 113
f 20 19 52
f 177 290 179
f 16 66 59
f 4 39 128
f 28 55 52
f 18 114 105
