# Collision geometry from rj45_plug.usd: /factory_rj45_plug/factory_rj45_plug/collision; units meters
v -0.0022499999031424522 0.004799999762326479 0.057105999439954758
v -0.0021992912515997887 0.00081006874097511172 0.057106003165245056
v -0.0021140000317245722 0.0011139999842271209 0.057105999439954758
v -0.001975927734747529 0.0014421646483242512 0.057106003165245056
v -0.0017416910268366337 0.0018146786605939269 0.057106003165245056
v -0.0014429234433919191 0.0021424484439194202 0.057106003165245056
v 0.002129978034645319 0.001951169571839273 0.057106003165245056
v 0.0024500922299921513 0.0014995884848758578 0.057106003165245056
v 0.0027499999850988388 0.004799999762326479 0.057105999439954758
v -0.0010903538204729557 0.0024131361860781908 0.057106003165245056
v -0.00069385796086862683 0.002617277204990387 0.057106003165245056
v 0.0026521948166191578 0.0010001042392104864 0.057106003165245056
v -0.00027360377134755254 0.0027466481551527977 0.057106003165245056
v 0.00016250745102297515 0.0028006020002067089 0.057106003165245056
v 0.000604961474891752 0.0027768653817474842 0.057106003165245056
v 0.0010391658870503306 0.0026744597125798464 0.057106003165245056
v 0.0014452908653765917 0.0024982073809951544 0.057106003165245056
v 0.0018095530103892088 0.0022567098494619131 0.057106003165245056
v -0.00084504025289788842 -0.0019496666500344872 0.057106003165245056
v -0.0022499999031424522 -0.00419999985024333 0.057105999439954758
v 0.0027499999850988388 -0.00419999985024333 0.057105999439954758
v 0.0018617317546159029 -0.0016134383622556925 0.057106003165245056
v 0.0015003548469394445 -0.001867800485342741 0.057106003165245056
v -0.0021207588724792004 -0.0004989560111425817 0.057106003165245056
v -0.0022254365030676126 -6.8942368670832366e-05 0.057106003165245056
v 0.0027511648368090391 0.00045183481415733695 0.057105932384729385
v 0.0027193715795874596 -0.00010771899542305619 0.057106003165245056
v -0.0022501018829643726 0.00039265095256268978 0.057105947285890579
v 0.0023051104508340359 -0.001127142459154129 0.057106003165245056
v 0.002484999829903245 -0.00082000001566484571 0.057105999439954758
v 0.0021130000241100788 -0.0013670000480487943 0.057105999439954758
v 0.00098314986098557711 -0.0020964550785720348 0.057106003165245056
v 0.00045571840018965304 -0.0021937962155789137 0.057106003165245056
v 0.00013899999612476677 -0.0021979999728500843 0.057105999439954758
v -0.00021234258019831032 -0.0021591086406260729 0.057106003165245056
v -0.0013914884766563773 -0.0015879434067755938 0.057106003165245056
v -0.0016994440229609609 -0.0012687911512330174 0.057106003165245056
v -0.0019470363622531295 -0.00089710636530071497 0.057106003165245056
v 0.002607967471703887 -0.00053592957556247711 0.057106003165245056
v -0.00051199999870732427 -0.0020810000132769346 0.057105999439954758
v -0.0011099999537691474 -0.0017979999538511038 0.057105999439954758
v -0.0012499999720603228 0.0038000000640749931 0.037105999886989594
v 0.0017500000540167093 0.0038000000640749931 0.037105999886989594
v -0.0012499999720603228 0.0038000000640749931 0.029105998575687408
v 0.0017500000540167093 0.0038000000640749931 0.029105998575687408
v -0.0012499999720603228 -0.0031999999191612005 0.037105999886989594
v -0.0012499999720603228 -0.0031999999191612005 0.029105998575687408
v 0.0017500000540167093 -0.0031999999191612005 0.037105999886989594
v 0.0017500000540167093 -0.0031999999191612005 0.029105998575687408
v 0.0037499999161809683 -0.0052000000141561031 0.037105999886989594
v -0.0032500000670552254 -0.0052000000141561031 0.037105999886989594
v -0.0032500000670552254 0.0057999999262392521 0.037105999886989594
v 0.0037499999161809683 0.0057999999262392521 0.037105999886989594
v 0.0037499999161809683 0.0057999999262392521 0.04210599884390831
v -0.0032500000670552254 0.0057999999262392521 0.04210599884390831
v -0.0032500000670552254 -0.0052000000141561031 0.04210599884390831
v 0.0037499999161809683 -0.0052000000141561031 0.04210599884390831
v -0.00017376008327119052 -0.0021660570055246353 0.077105998992919922
v -0.00059263635193929076 -0.0020557281095534563 0.077105998992919922
v -0.001000354764983058 -0.0018678006017580628 0.077105998992919922
v -0.0013617317890748382 -0.0016134383622556925 0.077105998992919922
v -0.0016129998257383704 -0.0013670000480487943 0.077105998992919922
v -0.001805109903216362 -0.0011271432740613818 0.077105998992919922
v -0.0019849999807775021 -0.00082000001566484571 0.077105998992919922
v -0.0021079685539007187 -0.00053592614131048322 0.077105998992919922
v -0.0022009999956935644 -0.00019500000053085387 0.077105998992919922
v -0.0022445730865001678 0.00010595103958621621 0.077105998992919922
v 0.0027385849971324205 1.2628709555428941e-05 0.077105998992919922
v 0.002620757557451725 -0.0004989603185094893 0.077105998992919922
v 0.0024470360949635506 -0.00089710677275434136 0.077105998992919922
v 0.0021994428243488073 -0.0012687926646322012 0.077105998992919922
v 0.0018914882093667984 -0.0015879436396062374 0.077105998992919922
v 0.0016099999193102121 -0.0017979999538511038 0.077105998992919922
v 0.0013450394617393613 -0.0019496668828651309 0.077105998992919922
v 0.00092683581169694662 -0.0021089890506118536 0.077105998992919922
v 0.00050436757737770677 -0.0021889433264732361 0.077105998992919922
v 0.00016860391770023853 -0.0021998435258865356 0.077105998992919922
v 0.002744999947026372 0.00046599999768659472 0.077105998992919922
v 0.0026992920320481062 0.00081006443360820413 0.077105998992919922
v 0.0026140001136809587 0.0011139999842271209 0.077105998992919922
v 0.0024759264197200537 0.0014421667438000441 0.077105998992919922
v 0.0022416904103010893 0.0018146794755011797 0.077105998992919922
v 0.0019429242238402367 0.0021424477454274893 0.077105998992919922
v 0.0015903542516753078 0.0024131357204169035 0.077105998992919922
v 0.0011938575189560652 0.0026172774378210306 0.077105998992919922
v 0.00077360286377370358 0.0027466483879834414 0.077105998992919922
v 0.00033749363501556218 0.0028006020002067089 0.077105998992919922
v -0.00010496170580154285 0.0027768651489168406 0.077105998992919922
v -0.00053916487377136946 0.0026744601782411337 0.077105998992919922
v -0.00094529130728915334 0.0024982071481645107 0.077105998992919922
v -0.0013095532776787877 0.0022567096166312695 0.077105998992919922
v -0.0016299772541970015 0.0019511702703312039 0.077105998992919922
v -0.0019500942435115576 0.0014995859237387776 0.077105998992919922
v -0.0021140000317245722 0.0011139999842271209 0.077105998992919922
v -0.0022069953847676516 0.00077186099952086806 0.077105998992919922
v -0.0022450003307312727 0.0004659996775444597 0.077105998992919922
v -0.0053513785824179649 -0.0012900000438094139 0.022102976217865944
v -0.0053460001945495605 -0.0031999999191612005 0.022098999470472336
v -0.0037312619388103485 -0.0012900000438094139 0.022098984569311142
v -0.003734000027179718 -0.0031999999191612005 0.022098999470472336
v -0.0032500000670552254 0.0057999999262392521 0.017106000334024429
v -0.0032500000670552254 0.0038000000640749931 0.017106000334024429
v -0.0032500000670552254 0.0038000000640749931 0.019105998799204826
v -0.0032500000670552254 -0.0031999999191612005 0.017106000334024429
v -0.0032500000670552254 -0.0052000000141561031 0.017106000334024429
v -0.0032500000670552254 -0.0031999999191612005 0.019105998799204826
v -0.0022499999031424522 0.0057999999262392521 0.016106000170111656
v -0.0022499999031424522 0.0057999999262392521 0.017106000334024429
v 0.0037499999161809683 0.0057999999262392521 0.029105998575687408
v 0.0027499999850988388 0.0057999999262392521 0.029105998575687408
v 0.0027396897785365582 0.0058000087738037109 0.016478825360536575
v 0.0025879167951643467 0.0057999999262392521 0.016231976449489594
v 0.0023714539129287004 0.0057999938726425171 0.016119388863444328
v 0.0037499999161809683 -0.0052000000141561031 0.029105998575687408
v 0.0027499999850988388 -0.0052000000141561031 0.029105998575687408
v -0.0022499999031424522 -0.0052000000141561031 0.017106000334024429
v 0.0027466095052659512 -0.0051999981515109539 0.016524499282240868
v -0.0022499999031424522 -0.0052000000141561031 0.016106000170111656
v 0.0024999999441206455 -0.0052000000141561031 0.016172999516129494
v 0.0023478725925087929 -0.0051999990828335285 0.016112577170133591
v 0.0026476045604795218 -0.0052000000141561031 0.016296083107590675
v 0.0027499999850988388 0.004799999762326479 0.022105999290943146
v 0.0027499999850988388 0.0030499997083097696 0.021105999127030373
v 0.0027499999850988388 -0.0024500000290572643 0.021105999127030373
v 0.0027499999850988388 -0.00419999985024333 0.024105997756123543
v 0.0027499999850988388 -0.00419999985024333 0.022105999290943146
v 0.0027499999850988388 -0.0019499999471008778 0.021105999127030373
v 0.0027499999850988388 -0.001449999981559813 0.021105999127030373
v 0.0027499999850988388 -0.00095000001601874828 0.021105999127030373
v 0.0027499999850988388 4.9999998736893758e-05 0.021105999127030373
v 0.0027453342918306589 0.00054997229017317295 0.01651800237596035
v 0.0027499999850988388 0.00054999999701976776 0.021105999127030373
v 0.0027499999850988388 0.0010499999625608325 0.021105999127030373
v 0.0027499999850988388 -0.00044999996316619217 0.021105999127030373
v 0.0027437473181635141 -0.00044999996316619217 0.016511302441358566
v 0.0027414478827267885 -0.00095000001601874828 0.016508789733052254
v 0.0027499999850988388 0.0020499997772276402 0.021105999127030373
v 0.0027414478827267885 0.0020499997772276402 0.016508789733052254
v 0.0027437473181635141 0.0025500000920146704 0.016511302441358566
v 0.0027499999850988388 0.0025500000920146704 0.021105999127030373
v 0.0027499999850988388 0.0015500000445172191 0.021105999127030373
v 0.0027499999850988388 0.004799999762326479 0.024105997756123543
v 0.0027499999850988388 0.004799999762326479 0.025105999782681465
v 0.0027499999850988388 -0.00419999985024333 0.025105999782681465
v 0.0027499999850988388 -0.00419999985024333 0.028106000274419785
v 0.0027499999850988388 0.004799999762326479 0.028106000274419785
v 0.00074999994831159711 -0.0024500000290572643 0.021105999127030373
v 0.00074999994831159711 -0.0024500000290572643 0.016106000170111656
v 0.0027479999698698521 -0.0024500000290572643 0.016563000157475471
v 0.0026806583628058434 -0.0024499970022588968 0.01634364016354084
v 0.0025369999930262566 -0.0024500000290572643 0.016196999698877335
v 0.0023529925383627415 -0.0024500000290572643 0.016115222126245499
v 0.00074999994831159711 -0.0019499999471008778 0.021105999127030373
v 0.00074999994831159711 -0.0019499999471008778 0.016106000170111656
v 0.0026741360779851675 -0.0019500243943184614 0.016332130879163742
v 0.0024999999441206455 -0.0019499999471008778 0.016172999516129494
v 0.0027479999698698521 -0.0019499999471008778 0.016563000157475471
v 0.0023348696995526552 -0.001949991681613028 0.016110846772789955
v 0.0027423826977610588 -0.0014499753015115857 0.016500163823366165
v 0.00074999994831159711 -0.001449999981559813 0.021105999127030373
v 0.00074999994831159711 -0.001449999981559813 0.016106000170111656
v 0.0026219801511615515 -0.001449979841709137 0.016264086589217186
v 0.0023769522085785866 -0.0014499952085316181 0.016118183732032776
v 0.00074999994831159711 -0.00095000001601874828 0.021105999127030373
v 0.00074999994831159711 -0.00095000001601874828 0.016106000170111656
v 0.0024999999441206455 -0.00095000001601874828 0.016172999516129494
v 0.0023446993436664343 -0.00095000001601874828 0.016112253069877625
v 0.002657121978700161 -0.00095000001601874828 0.016309328377246857
v 0.00074999994831159711 -0.00044999996316619217 0.021105999127030373
v 0.00074999994831159711 -0.00044999996316619217 0.016106000170111656
v 0.0026427414268255234 -0.00044999996316619217 0.016290551051497459
v 0.0024999999441206455 -0.00044999996316619217 0.016172999516129494
v 0.0023472139146178961 -0.00044999996316619217 0.016114553436636925
v 0.00074999994831159711 4.9999998736893758e-05 0.021105999127030373
v 0.00074999994831159711 4.9999998736893758e-05 0.016106000170111656
v 0.0027336368802934885 4.9985395889962092e-05 0.016463516280055046
v 0.0023644063621759415 5.0032580475090072e-05 0.016115084290504456
v 0.0025944479275494814 4.9998187023447827e-05 0.016238350421190262
v 0.00074999994831159711 0.00054999999701976776 0.021105999127030373
v 0.00074999994831159711 0.00054999999701976776 0.016106000170111656
v 0.0026476045604795218 0.00055000127758830786 0.016296083107590675
v 0.0024999999441206455 0.00054999999701976776 0.016172999516129494
v 0.0023451896850019693 0.0005500101251527667 0.016113931313157082
v 0.00074999994831159711 0.0010499999625608325 0.021105999127030373
v 0.00074999994831159711 0.0010499999625608325 0.016106000170111656
v 0.0027315607294440269 0.0010499999625608325 0.016462067142128944
v 0.0024999999441206455 0.0010499999625608325 0.016172999516129494
v 0.0023446993436664343 0.0010499999625608325 0.016112253069877625
v 0.0026330000255256891 0.0010499999625608325 0.016285000368952751
v 0.002733682980760932 0.001550022279843688 0.016456682235002518
v 0.0025534383021295071 0.0015500523149967194 0.016202330589294434
v 0.00074999994831159711 0.0015500000445172191 0.021105999127030373
v 0.00074999994831159711 0.0015500000445172191 0.016106000170111656
v 0.0023472139146178961 0.0015500001609325409 0.016114553436636925
v 0.00074999994831159711 0.0020499997772276402 0.021105999127030373
v 0.00074999994831159711 0.0020499997772276402 0.016106000170111656
v 0.0024999999441206455 0.0020499997772276402 0.016172999516129494
v 0.0023446993436664343 0.0020499997772276402 0.016112253069877625
v 0.002657121978700161 0.0020499997772276402 0.016309328377246857
v 0.00074999994831159711 0.0025500000920146704 0.021105999127030373
v 0.00074999994831159711 0.0025500000920146704 0.016106000170111656
v 0.0026427414268255234 0.0025500000920146704 0.016290551051497459
v 0.0024999999441206455 0.0025500000920146704 0.016172999516129494
v 0.0023472139146178961 0.0025500000920146704 0.016114553436636925
v 0.00074999994831159711 0.0030499997083097696 0.021105999127030373
v 0.00074999994831159711 0.0030499997083097696 0.016106000170111656
v 0.0027029998600482941 0.0030499997083097696 0.016395000740885735
v 0.0027479999698698521 0.0030499997083097696 0.016563000157475471
v 0.0023700206074863672 0.0030499985441565514 0.016115272417664528
v 0.0026025183033198118 0.0030500029679387808 0.016246221959590912
v -0.0022499999031424522 -0.0031999999191612005 0.016106000170111656
v -0.0022499999031424522 0.0038000000640749931 0.016106000170111656
v 0.00074999994831159711 -0.00419999985024333 0.022105999290943146
v 0.00074999994831159711 -0.00419999985024333 0.024105997756123543
v 0.00074999994831159711 0.004799999762326479 0.024105997756123543
v 0.00074999994831159711 0.004799999762326479 0.022105999290943146
v 0.00074999994831159711 -0.00419999985024333 0.025105999782681465
v 0.00074999994831159711 -0.00419999985024333 0.028106000274419785
v 0.00074999994831159711 0.004799999762326479 0.028106000274419785
v 0.00074999994831159711 0.004799999762326479 0.025105999782681465
v -0.0022499999031424522 -0.0031999999191612005 0.017106000334024429
v -0.0022499999031424522 -0.0031999999191612005 0.015106000006198883
v -0.0042500002309679985 -0.0031999999191612005 0.015106000006198883
v -0.0042500002309679985 -0.0031999999191612005 0.019105998799204826
v -0.0045899995602667332 -0.0031999999191612005 0.021003000438213348
v -0.0042500002309679985 0.0038000000640749931 0.019105998799204826
v -0.0042500002309679985 0.0038000000640749931 0.015106000006198883
v -0.0022499999031424522 0.0038000000640749931 0.015106000006198883
v -0.0022499999031424522 0.0038000000640749931 0.017106000334024429
v -0.003734000027179718 0.0038000000640749931 0.022098999470472336
v -0.0045899995602667332 0.0038000000640749931 0.021003000438213348
v -0.0053460001945495605 0.0038000000640749931 0.022098999470472336
v -0.0037326256278902292 0.0018899999558925629 0.022098967805504799
v -0.0053460001945495605 0.0018899999558925629 0.022098999470472336
v -0.003982683178037405 0.0018899999558925629 0.024103879928588867
v -0.0039220000617206097 -0.0012900000438094139 0.023668000474572182
v -0.0042059449478983879 -0.0012900000438094139 0.025396943092346191
v -0.0042940001003444195 0.0018899999558925629 0.025822998955845833
v -0.0046311607584357262 0.0018899999558925629 0.027325853705406189
v -0.004678286612033844 -0.0012900000438094139 0.027512984350323677
v -0.0050949994474649429 0.0018899999558925629 0.029002998024225235
v -0.0050949994474649429 -0.0012900000438094139 0.029002998024225235
v -0.0054680434986948967 -0.0012899814173579216 0.030137306079268456
v -0.00547399977222085 0.0018899999558925629 0.030137998983263969
v -0.00560384476557374 0.0018899742281064391 0.030239621177315712
v -0.0056380000896751881 -0.0012900000438094139 0.030246000736951828
v -0.0060899998061358929 0.0018899999558925629 0.030254999175667763
v -0.0061409994959831238 -0.0012900000438094139 0.030251000076532364
v -0.006238000001758337 0.0018899999558925629 0.030215997248888016
v -0.0063392906449735165 -0.0012900257715955377 0.030133938416838646
v -0.0063339998014271259 0.0018899999558925629 0.030130000784993172
v -0.0063849999569356441 0.0018899999558925629 0.030011000111699104
v -0.0063880002126097679 -0.0012900000438094139 0.029897000640630722
v -0.0063754972070455551 0.0018900008872151375 0.029811589047312737
v -0.006348196417093277 -0.0012899995781481266 0.029736835509538651
v -0.0061339917592704296 0.0018899997230619192 0.029310110956430435
v -0.0061145070940256119 -0.0012900000438094139 0.029265457764267921
v -0.0059209996834397316 0.0018899999558925629 0.028728999197483063
v -0.0058387834578752518 -0.0012900000438094139 0.028465155512094498
v -0.005753194447606802 0.0018899999558925629 0.028124511241912842
v -0.0056940000504255295 -0.0012900000438094139 0.027821000665426254
v -0.0055865668691694736 0.0018899999558925629 0.027124015614390373
v -0.0055758231319487095 -0.0012900000438094139 0.02702743373811245
v -0.0055041024461388588 0.0018899999558925629 0.025965787470340729
v -0.0055005564354360104 -0.0012900000438094139 0.02587311714887619
v -0.0054622483439743519 0.0018899999558925629 0.023528547957539558
v -0.0054581318981945515 -0.0012900000438094139 0.023425016552209854
v -0.0054100002162158489 0.0018899999558925629 0.022678999230265617
f 1 28 2
f 2 3 1
f 1 3 4
f 4 5 1
f 1 5 6
f 7 8 9
f 1 10 11
f 8 12 9
f 9 12 26
f 1 6 10
f 1 11 13
f 13 14 1
f 1 14 9
f 9 14 15
f 9 15 16
f 16 17 9
f 9 17 18
f 9 18 7
f 21 22 23
f 24 25 20
f 21 26 27
f 20 25 28
f 29 21 30
f 29 31 21
f 21 31 22
f 21 23 32
f 21 33 20
f 20 33 34
f 20 34 35
f 36 37 20
f 20 37 38
f 27 39 21
f 21 39 30
f 21 32 33
f 20 35 40
f 20 40 19
f 19 41 20
f 20 41 36
f 20 38 24
f 42 43 44
f 44 43 45
f 46 42 47
f 47 42 44
f 48 46 49
f 49 46 47
f 43 48 45
f 45 48 49
f 49 47 45
f 45 47 44
f 48 50 46
f 46 50 51
f 46 51 42
f 42 51 52
f 42 52 43
f 43 52 53
f 43 53 48
f 48 53 50
f 54 53 55
f 55 53 52
f 55 52 56
f 56 52 51
f 56 51 57
f 57 51 50
f 57 50 54
f 54 50 53
f 21 57 26
f 26 57 54
f 26 54 9
f 55 1 54
f 54 1 9
f 20 56 21
f 21 56 57
f 1 55 28
f 28 55 56
f 28 56 20
f 34 58 35
f 35 58 59
f 35 59 40
f 40 59 19
f 19 59 60
f 19 60 41
f 41 60 61
f 41 61 36
f 36 61 62
f 36 62 37
f 37 62 63
f 37 63 38
f 38 63 64
f 38 64 65
f 38 65 24
f 24 65 66
f 24 66 25
f 25 66 67
f 26 68 27
f 27 68 69
f 27 69 39
f 39 69 70
f 39 70 30
f 30 70 29
f 29 70 71
f 29 71 31
f 31 71 72
f 31 72 22
f 22 72 73
f 22 73 23
f 23 73 74
f 23 74 32
f 32 74 75
f 32 75 76
f 32 76 33
f 33 76 77
f 33 77 34
f 34 77 58
f 26 78 68
f 78 26 79
f 79 26 12
f 79 12 80
f 80 12 8
f 80 8 81
f 81 8 82
f 82 8 7
f 82 7 83
f 83 7 18
f 83 18 84
f 84 18 17
f 84 17 85
f 85 17 16
f 85 16 86
f 86 16 15
f 86 15 87
f 87 15 14
f 87 14 88
f 88 14 13
f 88 13 89
f 89 13 11
f 89 11 90
f 90 11 10
f 90 10 91
f 91 10 6
f 91 6 92
f 92 6 5
f 92 5 93
f 93 5 4
f 93 4 3
f 93 3 94
f 94 3 2
f 94 2 95
f 95 2 28
f 95 28 96
f 96 28 67
f 67 28 25
f 58 77 96
f 96 77 76
f 96 59 58
f 61 60 96
f 96 60 59
f 63 62 96
f 96 62 61
f 65 64 96
f 96 64 63
f 67 66 96
f 96 66 65
f 93 94 96
f 96 94 95
f 92 93 96
f 96 91 92
f 89 90 96
f 96 90 91
f 96 88 89
f 86 87 96
f 96 87 88
f 96 85 86
f 83 84 96
f 96 84 85
f 96 82 83
f 80 81 96
f 96 81 82
f 78 79 96
f 96 79 80
f 96 68 78
f 70 69 96
f 96 69 68
f 96 71 70
f 73 72 96
f 96 72 71
f 75 74 96
f 96 74 73
f 96 76 75
f 97 98 99
f 99 98 100
f 101 102 103
f 104 105 106
f 106 105 51
f 106 51 103
f 103 51 52
f 103 52 101
f 113 107 108
f 53 109 52
f 52 109 110
f 52 110 101
f 101 110 108
f 108 110 111
f 108 111 113
f 113 111 112
f 114 50 115
f 115 50 51
f 51 105 115
f 115 105 116
f 115 116 117
f 117 116 118
f 117 118 120
f 121 117 120
f 120 119 121
f 122 123 208
f 117 149 124
f 125 115 126
f 126 115 117
f 157 159 127
f 127 159 128
f 117 124 126
f 126 124 127
f 126 127 122
f 122 127 128
f 122 128 129
f 130 176 131
f 132 133 122
f 131 132 130
f 130 132 122
f 130 122 134
f 134 122 129
f 134 129 135
f 135 129 136
f 137 138 139
f 123 122 140
f 139 140 137
f 137 140 122
f 137 122 141
f 141 122 133
f 141 133 190
f 190 133 186
f 208 111 122
f 122 111 110
f 122 110 142
f 142 110 143
f 142 143 125
f 125 143 144
f 125 144 115
f 115 144 145
f 115 145 110
f 110 145 146
f 110 146 143
f 149 150 152
f 150 151 152
f 147 124 148
f 148 124 149
f 148 149 152
f 153 147 154
f 154 147 148
f 127 153 157
f 157 153 154
f 157 154 158
f 155 157 158
f 158 156 155
f 160 128 161
f 161 128 159
f 161 159 163
f 159 162 163
f 164 160 165
f 165 160 161
f 129 164 136
f 136 164 165
f 136 165 167
f 168 136 167
f 167 166 168
f 173 135 171
f 169 134 170
f 170 134 135
f 170 135 173
f 171 172 173
f 174 169 175
f 175 169 170
f 130 174 176
f 176 174 175
f 176 175 177
f 177 178 176
f 183 131 181
f 179 132 180
f 180 132 131
f 180 131 183
f 181 182 183
f 184 179 185
f 185 179 180
f 133 184 186
f 186 184 185
f 186 185 188
f 188 187 189
f 188 189 186
f 192 141 193
f 193 141 190
f 193 190 194
f 194 190 191
f 195 192 196
f 196 192 193
f 137 195 138
f 138 195 196
f 138 196 198
f 199 138 198
f 198 197 199
f 204 139 202
f 200 140 201
f 201 140 139
f 201 139 204
f 202 203 204
f 205 200 206
f 206 200 201
f 123 205 208
f 208 205 206
f 208 206 209
f 207 208 209
f 209 210 207
f 113 209 107
f 107 209 206
f 201 204 198
f 196 193 211
f 198 196 201
f 201 196 211
f 201 211 206
f 206 211 212
f 206 212 107
f 180 183 177
f 177 175 180
f 180 175 211
f 180 211 185
f 185 211 193
f 185 193 188
f 188 193 194
f 173 167 170
f 170 167 165
f 161 118 165
f 165 118 211
f 165 211 170
f 170 211 175
f 152 120 148
f 148 120 118
f 148 118 154
f 154 118 161
f 154 161 158
f 158 161 163
f 147 153 124
f 124 153 127
f 169 174 134
f 134 174 130
f 179 184 132
f 132 184 133
f 192 195 141
f 141 195 137
f 164 129 160
f 160 129 128
f 205 123 200
f 200 123 140
f 213 214 126
f 126 214 125
f 214 215 125
f 125 215 142
f 215 216 142
f 142 216 122
f 216 213 122
f 122 213 126
f 216 215 213
f 213 215 214
f 217 218 144
f 144 218 145
f 218 219 145
f 145 219 146
f 219 220 146
f 146 220 143
f 220 217 143
f 143 217 144
f 220 219 217
f 217 219 218
f 53 50 109
f 109 50 114
f 51 50 52
f 52 50 53
f 110 109 115
f 115 109 114
f 211 221 104
f 222 211 223
f 223 211 104
f 223 104 224
f 224 104 106
f 224 106 225
f 225 106 100
f 225 100 98
f 226 227 224
f 224 227 223
f 212 228 227
f 229 212 102
f 102 212 227
f 102 227 103
f 103 227 226
f 103 226 230
f 230 226 231
f 230 231 232
f 222 228 211
f 211 228 212
f 227 228 223
f 223 228 222
f 116 221 118
f 118 221 211
f 116 105 221
f 221 105 104
f 229 108 212
f 212 108 107
f 229 102 108
f 108 102 101
f 103 230 233
f 103 233 106
f 106 233 99
f 106 99 100
f 230 232 233
f 233 232 234
f 225 98 97
f 225 97 231
f 231 97 234
f 231 234 232
f 224 225 226
f 226 225 231
f 99 233 235
f 99 235 236
f 236 235 237
f 237 235 238
f 237 238 239
f 237 239 240
f 240 239 241
f 240 241 242
f 242 241 244
f 242 244 243
f 243 244 245
f 243 245 246
f 248 246 247
f 247 246 245
f 248 247 249
f 248 249 250
f 250 249 251
f 250 251 252
f 250 252 253
f 253 252 254
f 253 254 255
f 255 254 256
f 255 256 257
f 257 256 258
f 257 258 259
f 259 258 260
f 259 260 261
f 261 260 262
f 261 262 263
f 263 262 264
f 263 264 265
f 265 264 266
f 265 266 267
f 267 266 268
f 267 268 97
f 97 268 234
f 255 257 248
f 257 246 248
f 257 243 246
f 257 259 242
f 242 259 240
f 240 259 261
f 257 242 243
f 261 263 240
f 240 263 237
f 237 263 265
f 237 265 236
f 253 248 250
f 248 253 255
f 97 99 267
f 267 99 236
f 267 236 265
f 247 245 256
f 256 245 244
f 260 241 239
f 260 239 262
f 260 258 241
f 241 258 256
f 241 256 244
f 256 254 247
f 249 247 252
f 234 268 233
f 233 268 266
f 233 266 235
f 235 266 264
f 235 264 238
f 238 264 239
f 239 264 262
f 247 254 252
f 249 252 251
f 149 117 150
f 150 117 121
f 150 121 151
f 151 121 119
f 151 119 120
f 151 120 152
f 159 157 155
f 159 155 162
f 162 155 156
f 162 156 163
f 163 156 158
f 135 136 168
f 135 168 171
f 171 168 166
f 171 166 172
f 172 166 167
f 172 167 173
f 131 176 181
f 181 176 178
f 181 178 182
f 182 178 177
f 182 177 183
f 190 186 189
f 190 189 191
f 191 189 187
f 191 187 188
f 191 188 194
f 139 138 199
f 139 199 202
f 202 199 197
f 202 197 203
f 203 197 198
f 203 198 204
f 111 208 207
f 111 207 210
f 111 210 112
f 112 210 209
f 112 209 113
