# Collision geometry from rj45_socket.usd: /factory_rj45_socket/factory_rj45_socket/collision; units meters
v -0.0082499999552965164 -0.0077499998733401299 0.0020000000949949026
v -0.0082499999552965164 -0.0077499998733401299 0.017000000923871994
v 0.0082499999552965164 -0.0077499998733401299 0.0020000000949949026
v 0.0082499999552965164 -0.0077499998733401299 0.017000000923871994
v 0.0082499999552965164 0.0077499998733401299 0.0020000000949949026
v 0.0082499999552965164 0.0077499998733401299 0.017000000923871994
v -0.0082499999552965164 0.0077499998733401299 0.0020000000949949026
v -0.0082499999552965164 0.0077499998733401299 0.017000000923871994
v -0.010494349524378777 0.0091380253434181213 0.017000002786517143
v 0.010031831450760365 0.0098598012700676918 0.017000002786517143
v -0.010490900836884975 -0.0091866469010710716 0.017000002786517143
v -0.010031831450760365 -0.0098598012700676918 0.017000002786517143
v -0.010338803753256798 -0.0095530347898602486 0.017000002786517143
v 0.0096380217000842094 0.00999434944242239 0.017000002786517143
v -0.0098895533010363579 0.0099417455494403839 0.017000000923871994
v 0.010359803214669228 -0.0095318304374814034 0.017000002786517143
v -0.010359803214669228 0.0095318304374814034 0.017000002786517143
v 0.010494349524378777 -0.0091380253434181213 0.017000002786517143
v 0.010490900836884975 0.0091866469010710716 0.017000002786517143
v 0.010338803753256798 0.0095530347898602486 0.017000002786517143
v -0.0096380217000842094 -0.00999434944242239 0.017000002786517143
v 0.0098895533010363579 -0.0099417455494403839 0.017000000923871994
v -0.010499999858438969 -0.0060000000521540642 0
v 0.010499999858438969 0.0060000000521540642 0
v -0.010499999858438969 0.0060000000521540642 0
v -0.013342673890292645 -0.00043364989687688649 0
v 0.010499999858438969 -0.0060000000521540642 0
v 0.010489264503121376 -0.0091924741864204407 0
v -0.0098895542323589325 -0.0099417455494403839 1.5505439154850365e-09
v -0.010494349524378777 -0.0091380253434181213 0
v -0.013867788016796112 0.0012789935572072864 0
v -0.010489264503121376 0.0091924741864204407 0
v -0.0096380217000842094 0.00999434944242239 0
v 0.010494349524378777 0.0091380253434181213 0
v 0.010031831450760365 -0.0098598022013902664 0
v -0.010359802283346653 -0.0095318304374814034 0
v 0.0096380217000842094 -0.00999434944242239 0
v -0.010031831450760365 0.0098598022013902664 0
v 0.0098895542323589325 0.0099417455494403839 1.9381798388451443e-09
v 0.010359802283346653 0.0095318304374814034 0
v 0.014218175783753395 0.0015241252258419991 0
v 0.013589615933597088 0.00098064995836466551 -2.1996011412284133e-07
v -0.013458616100251675 0.00074789539212360978 0
v -0.010338803753256798 0.0095530347898602486 0
v 0.010338803753256798 -0.0095530347898602486 0
v -0.014466335996985435 0.0016269130865111947 -1.5959133747855958e-07
v -0.015579280443489552 0.0059825717471539974 0
v 0.01486558374017477 0.0017025833949446678 0
v 0.013387975282967091 -0.00059710640925914049 -5.7183742185884512e-09
v 0.01399337500333786 -0.0014048164011910558 -7.4327601851109648e-09
v -0.013967158272862434 -0.001360443769954145 0
v 0.013299593701958656 0.00020919443340972066 0
v -0.013303117826581001 0.00016311122453771532 0
v -0.014496874064207077 -0.0016321667935699224 0
v -0.013603314757347107 -0.00097734062001109123 0
v -0.015134417451918125 0.0017025833949446678 0
v -0.016753572970628738 0.0057436344213783741 0
v -0.015781823545694351 0.0015241261571645737 0
v -0.017920009791851044 0.0052537755109369755 -1.4437492268370988e-07
v -0.019175427034497261 0.0043341354466974735 3.4990030428616592e-08
v -0.016410395503044128 0.00098063750192523003 -1.256826465123595e-07
v -0.020039254799485207 0.0032658134587109089 0
v -0.020527023822069168 0.0023483836557716131 0
v -0.0209015142172575 0.0011417249916121364 -1.1514302400428278e-07
v -0.01670040562748909 0.00020919037342537194 0
v -0.021002998575568199 -0.00038795848377048969 -4.9158359161083354e-08
v -0.016612034291028976 -0.00059708469780161977 -2.8554283382220547e-09
v -0.020743634551763535 -0.0017535705119371414 0
v -0.020253779366612434 -0.0029200059361755848 -1.1550396550319419e-07
v -0.019334122538566589 -0.0041754399426281452 3.4973762552681364e-08
v -0.016006633639335632 -0.0014048127923160791 -4.6380286278235872e-09
v -0.018265802413225174 -0.0050392593257129192 0
v -0.01734837144613266 -0.0055270274169743061 0
v -0.015940288081765175 -0.0059456587769091129 2.8393721152042417e-08
v -0.015168627724051476 -0.0017043360276147723 0
v 0.015579280443489552 -0.0059825717471539974 0
v 0.014831375330686569 -0.0017043359111994505 0
v 0.015503127127885818 -0.0016321669099852443 0
v 0.016753572970628738 -0.0057436344213783741 0
v 0.017920009791851044 -0.0052537755109369755 -1.1550063305776348e-07
v 0.016226070001721382 -0.0012179175391793251 -6.1525069483536754e-09
v 0.019175427034497261 -0.0043341354466974735 3.4990030428616592e-08
v 0.020039254799485207 -0.0032658134587109089 0
v 0.020527023822069168 -0.0023483836557716131 0
v 0.016657331958413124 -0.00043363508302718401 0
v 0.0209015142172575 -0.0011417246423661709 -1.4392790603778849e-07
v 0.021002998575568199 0.00038795848377048969 -4.9158362713797032e-08
v 0.016696883365511894 0.00016313004016410559 0
v 0.020743634551763535 0.0017535705119371414 0
v 0.016541384160518646 0.00074789812788367271 0
v 0.020253779366612434 0.0029200064018368721 -1.4437907225328672e-07
v 0.019334122538566589 0.0041754399426281452 3.4973762552681364e-08
v 0.016132201999425888 0.0012790033360943198 0
v 0.018265802413225174 0.0050392593257129192 0
v 0.015543363057076931 0.0016248858300969005 0
v 0.01734837144613266 0.0055270274169743061 0
v 0.015940288081765175 0.0059456587769091129 2.8393721152042417e-08
v 0.010499999858438969 -0.0060000000521540642 0.0020000000949949026
v 0.010499999858438969 0.0060000000521540642 0.0020000000949949026
v -0.010499999858438969 0.0060000000521540642 0.0020000000949949026
v -0.010499999858438969 -0.0060000000521540642 0.0020000000949949026
v -0.015940286219120026 0.0059456597082316875 0.0019999719224870205
v -0.017348375171422958 0.0055270255543291569 0.0020000003278255463
v -0.018265806138515472 0.0050392588600516319 0.0020000003278255463
v -0.019334122538566589 0.0041754394769668579 0.0019999651703983545
v -0.020253777503967285 0.0029200101271271706 0.0020001446828246117
v -0.020743634551763535 0.0017535705119371414 0.0020000003278255463
v -0.021002998575568199 0.00038795851287432015 0.0020000494550913572
v -0.0209015142172575 -0.0011417248751968145 0.0020001442171633244
v -0.020527023822069168 -0.0023483831901103258 0.0020000003278255463
v -0.020039254799485207 -0.0032658134587109089 0.0020000003278255463
v -0.019175415858626366 -0.004334145225584507 0.0019999651703983545
v -0.017920009791851044 -0.0052537764422595501 0.0020001158118247986
v -0.016753574833273888 -0.0057436339557170868 0.0020000003278255463
v -0.015579279512166977 -0.0059825717471539974 0.0020000003278255463
v -0.013387974351644516 -0.00059710239293053746 0.0020000061485916376
v -0.014218175783753395 0.0015241251094266772 0.0020000003278255463
v -0.013589614070951939 0.00098064832855015993 0.0020002203527837992
v -0.013299593701958656 0.0002091944043058902 0.0020000003278255463
v -0.013993372209370136 -0.0014048146549612284 0.0020000077784061432
v -0.01486558374017477 0.0017025833949446678 0.0020000003278255463
v -0.014831375330686569 -0.0017043359111994505 0.0020000003278255463
v -0.015503127127885818 -0.0016321667935699224 0.0020000003278255463
v -0.016032842919230461 -0.0013604447012767196 0.0020000003278255463
v -0.016396678984165192 -0.00097735167946666479 0.0020000003278255463
v -0.016657331958413124 -0.00043363406439311802 0.0020000003278255463
v -0.016696883365511894 0.00016312774096149951 0.0020000003278255463
v -0.016541384160518646 0.00074789905920624733 0.0020000003278255463
v -0.016132203862071037 0.0012790022883564234 0.0020000003278255463
v -0.015543363057076931 0.0016248859465122223 0.0020000003278255463
v 0.013342673890292645 -0.00043364905286580324 0.0020000003278255463
v 0.013603314757347107 -0.00097734143491834402 0.0020000003278255463
v 0.013867787085473537 0.0012789933243766427 0.0020000003278255463
v 0.013967158272862434 -0.0013604426058009267 0.0020000003278255463
v 0.013303117826581001 0.00016311122453771532 0.0020000003278255463
v 0.013458616100251675 0.00074789434438571334 0.0020000003278255463
v 0.014496873132884502 -0.0016321666771546006 0.0020000003278255463
v 0.014466337859630585 0.0016269134357571602 0.0020001598168164492
v 0.015579279512166977 0.0059825717471539974 0.0020000003278255463
v 0.015134417451918125 0.0017025833949446678 0.0020000003278255463
v 0.016753574833273888 0.0057436339557170868 0.0020000003278255463
v 0.015781823545694351 0.0015241261571645737 0.0020000003278255463
v 0.017920009791851044 0.0052537755109369755 0.0020001446828246117
v 0.019175415858626366 0.004334145225584507 0.0019999651703983545
v 0.016410389915108681 0.00098064553458243608 0.0020001260563731194
v 0.020039254799485207 0.0032658134587109089 0.0020000003278255463
v 0.020527023822069168 0.0023483831901103258 0.0020000003278255463
v 0.0209015142172575 0.00114172522444278 0.0020001155789941549
v 0.01670040562748909 0.00020919108646921813 0.0020000003278255463
v 0.021002998575568199 -0.00038795851287432015 0.0020000494550913572
v 0.016612034291028976 -0.00059708621120080352 0.0020000031217932701
v 0.020743634551763535 -0.0017535705119371414 0.0020000003278255463
v 0.020253777503967285 -0.0029200096614658833 0.0020001158118247986
v 0.019334122538566589 -0.0041754394769668579 0.0019999651703983545
v 0.016006635501980782 -0.0014048125594854355 0.0020000049844384193
v 0.018265806138515472 -0.0050392588600516319 0.0020000003278255463
v 0.017348375171422958 -0.0055270255543291569 0.0020000003278255463
v 0.015940286219120026 -0.0059456597082316875 0.0019999719224870205
v 0.015168627724051476 -0.0017043360276147723 0.0020000003278255463
v -0.0080000003799796104 0.0075000007636845112 0.0020000000949949026
v -0.0080000003799796104 -0.0071000000461935997 0.0020000000949949026
v -0.0080000003799796104 0.0075000007636845112 0.028000000864267349
v -0.0080000003799796104 -0.0071000000461935997 0.028000000864267349
v -0.0053870002739131451 -0.0033130005467683077 0.028000000864267349
v -0.0053870002739131451 -0.0019000000320374966 0.028000000864267349
v -0.0059549999423325062 -0.0019000000320374966 0.028000000864267349
v 0.002854000311344862 0.0061000003479421139 0.028000000864267349
v 0.0080000003799796104 0.0075000007636845112 0.028000000864267349
v -0.0053870002739131451 0.0023000000510364771 0.028000000864267349
v -0.0053870002739131451 0.0038710001390427351 0.028000000864267349
v -0.0034159999340772629 0.0061000003479421139 0.028000000864267349
v -0.0034159999340772629 0.0038710001390427351 0.028000000864267349
v 0.0080000003799796104 -0.0071000000461935997 0.028000000864267349
v 0.002854000311344862 -0.0057000000961124897 0.028000000864267349
v -0.0034159999340772629 -0.0057000000961124897 0.028000000864267349
v -0.0034159999340772629 -0.0033130005467683077 0.028000000864267349
v -0.0059549999423325062 0.0023000000510364771 0.028000000864267349
v 0.0080000003799796104 0.0075000007636845112 0.0020000000949949026
v 0.0080000003799796104 -0.0071000000461935997 0.0020000000949949026
v -0.0034159999340772629 -0.0057000000961124897 0.016822999343276024
v -0.0024160000029951334 -0.0057000000961124897 0.016822999343276024
v -0.0024160000029951334 -0.0057000000961124897 0.01600000262260437
v 0.002854000311344862 -0.0057000000961124897 0.016000000759959221
v 0.002854000311344862 0.0061000003479421139 0.016000000759959221
v -0.0024160000029951334 0.0061000003479421139 0.01600000262260437
v -0.0024160000029951334 0.0038710001390427351 0.016000000759959221
v -0.0024160000029951334 -0.0033130005467683077 0.016000000759959221
v -0.0034176099579781294 -0.0033151227980852127 0.015036007389426231
v -0.0034175273030996323 0.0038670452777296305 0.015036014840006828
v -0.004416000097990036 -0.0033130005467683077 0.025000002235174179
v -0.004416000097990036 -0.0063000000081956387 0.025000002235174179
v -0.0053870002739131451 -0.0033130005467683077 0.025000002235174179
v -0.0059549999423325062 -0.0063000000081956387 0.025000002235174179
v -0.0053870002739131451 -0.0019000000320374966 0.025000002235174179
v -0.0059549999423325062 -0.0019000000320374966 0.025000002235174179
v -0.0034159999340772629 -0.0033130005467683077 0.016822999343276024
v -0.004416000097990036 0.0067000002600252628 0.025000002235174179
v -0.0059549999423325062 0.0067000002600252628 0.025000002235174179
v -0.0059549999423325062 -0.0063000000081956387 0.015035999938845634
v -0.0059549999423325062 0.0023000000510364771 0.025000002235174179
v -0.0034159999340772629 -0.0063000000081956387 0.015035999938845634
v -0.0053870002739131451 0.0023000000510364771 0.025000002235174179
v -0.0053870002739131451 0.0038710001390427351 0.025000002235174179
v -0.004416000097990036 0.0038710001390427351 0.025000002235174179
v -0.0034159999340772629 0.0061000003479421139 0.016822999343276024
v -0.0034159999340772629 0.0038710001390427351 0.016822999343276024
v -0.0024160000029951334 0.0061000003479421139 0.016822999343276024
v -0.0024160000029951334 -0.0033130005467683077 0.016822999343276024
v -0.0024160000029951334 0.0038710001390427351 0.016822999343276024
v -0.0021299999207258224 -0.0033140000887215137 0.016000000759959221
v -0.0059549999423325062 0.0067000002600252628 0.015035999938845634
v -0.002125999890267849 0.0038689998909831047 0.016000000759959221
v -0.0021260089706629515 0.0038691284134984016 0.015027422457933426
v -0.0021300336811691523 -0.0033134643454104662 0.015027085319161415
v -0.0034159999340772629 0.0067000002600252628 0.015035999938845634
f 1 2 3
f 3 2 4
f 3 4 5
f 5 4 6
f 5 6 7
f 7 6 8
f 7 8 1
f 1 8 2
f 17 9 8
f 20 10 6
f 8 9 2
f 2 9 11
f 12 2 13
f 6 10 14
f 6 4 18
f 4 2 21
f 6 14 8
f 8 14 15
f 22 16 4
f 11 13 2
f 16 18 4
f 18 19 6
f 6 19 20
f 2 12 21
f 21 22 4
f 8 15 17
f 23 37 29
f 34 24 32
f 32 24 25
f 27 28 37
f 43 31 25
f 38 33 44
f 40 34 39
f 35 37 28
f 23 29 30
f 39 34 33
f 33 34 32
f 24 41 42
f 55 26 23
f 25 53 43
f 33 32 44
f 28 45 35
f 36 30 29
f 31 46 25
f 25 46 47
f 97 48 41
f 97 41 24
f 52 49 27
f 27 49 50
f 54 51 23
f 24 42 52
f 26 53 25
f 23 26 25
f 23 25 37
f 37 25 24
f 37 24 27
f 27 24 52
f 75 54 74
f 74 54 23
f 51 55 23
f 47 46 56
f 47 56 57
f 57 56 58
f 57 58 59
f 59 58 60
f 60 58 61
f 60 61 62
f 62 61 63
f 63 61 64
f 64 61 65
f 64 65 66
f 66 65 67
f 66 67 68
f 68 67 69
f 69 67 70
f 70 67 71
f 70 71 72
f 72 71 73
f 73 71 74
f 74 71 75
f 27 50 76
f 76 50 77
f 76 77 78
f 76 78 79
f 79 78 80
f 80 78 81
f 80 81 82
f 82 81 83
f 83 81 84
f 84 81 85
f 84 85 86
f 86 85 87
f 87 85 88
f 87 88 89
f 89 88 90
f 89 90 91
f 91 90 92
f 92 90 93
f 92 93 94
f 94 93 95
f 94 95 96
f 96 95 97
f 97 95 48
f 22 21 37
f 37 21 29
f 28 27 98
f 24 34 99
f 99 34 19
f 99 19 98
f 98 19 18
f 98 18 28
f 15 14 33
f 33 14 39
f 32 25 100
f 23 30 101
f 101 30 11
f 101 11 100
f 100 11 9
f 100 9 32
f 5 7 3
f 3 7 1
f 102 47 57
f 102 57 103
f 103 57 59
f 103 59 104
f 104 59 60
f 104 60 105
f 105 60 62
f 105 62 106
f 106 62 63
f 106 63 107
f 107 63 64
f 107 64 108
f 108 64 66
f 108 66 109
f 109 66 68
f 109 68 110
f 110 68 69
f 110 69 111
f 111 69 70
f 111 70 112
f 112 70 72
f 112 72 113
f 113 72 73
f 113 73 114
f 114 73 74
f 114 74 115
f 117 118 100
f 100 118 119
f 100 119 101
f 101 119 116
f 116 120 101
f 102 121 117
f 102 117 100
f 101 120 115
f 115 120 122
f 115 122 123
f 115 123 114
f 114 123 113
f 113 123 124
f 113 124 112
f 112 124 125
f 112 125 111
f 111 125 110
f 110 125 126
f 110 126 109
f 109 126 108
f 108 126 127
f 108 127 107
f 107 127 128
f 107 128 106
f 106 128 105
f 105 128 129
f 105 129 104
f 104 129 130
f 104 130 103
f 103 130 102
f 102 130 121
f 101 115 23
f 23 115 74
f 102 100 47
f 47 100 25
f 98 132 131
f 133 99 136
f 137 134 98
f 98 134 132
f 99 135 136
f 159 137 158
f 158 137 98
f 98 131 99
f 99 131 135
f 133 138 99
f 99 138 139
f 139 138 140
f 139 140 141
f 141 140 142
f 141 142 143
f 143 142 144
f 144 142 145
f 144 145 146
f 146 145 147
f 147 145 148
f 148 145 149
f 148 149 150
f 150 149 151
f 150 151 152
f 152 151 153
f 153 151 154
f 154 151 155
f 154 155 156
f 156 155 157
f 157 155 158
f 158 155 159
f 158 98 76
f 76 98 27
f 158 76 79
f 158 79 157
f 157 79 80
f 157 80 156
f 156 80 82
f 156 82 154
f 154 82 83
f 154 83 153
f 153 83 84
f 153 84 152
f 152 84 86
f 152 86 150
f 150 86 87
f 150 87 148
f 148 87 89
f 148 89 147
f 147 89 91
f 147 91 146
f 146 91 92
f 146 92 144
f 144 92 94
f 144 94 143
f 143 94 96
f 143 96 141
f 141 96 97
f 141 97 139
f 99 139 24
f 24 139 97
f 75 122 54
f 54 122 120
f 54 120 51
f 51 120 55
f 55 120 116
f 55 116 26
f 26 116 119
f 26 119 53
f 53 119 43
f 43 119 118
f 43 118 31
f 31 118 117
f 31 117 46
f 46 117 121
f 46 121 56
f 56 121 130
f 56 130 58
f 58 130 129
f 58 129 61
f 61 129 128
f 61 128 65
f 65 128 127
f 65 127 126
f 65 126 67
f 67 126 125
f 67 125 71
f 71 125 124
f 71 124 123
f 71 123 75
f 75 123 122
f 77 159 78
f 78 159 155
f 78 155 81
f 81 155 151
f 81 151 85
f 85 151 149
f 85 149 88
f 88 149 90
f 90 149 145
f 90 145 93
f 93 145 142
f 93 142 95
f 95 142 140
f 95 140 48
f 48 140 138
f 48 138 41
f 41 138 133
f 41 133 42
f 42 133 136
f 42 136 52
f 52 136 135
f 52 135 131
f 52 131 49
f 49 131 132
f 49 132 50
f 50 132 134
f 50 134 137
f 50 137 77
f 77 137 159
f 22 37 35
f 22 35 16
f 16 35 45
f 16 45 28
f 16 28 18
f 11 30 36
f 11 36 13
f 13 36 12
f 12 36 29
f 12 29 21
f 15 33 38
f 15 38 17
f 17 38 44
f 17 44 32
f 17 32 9
f 19 34 40
f 19 40 20
f 20 40 10
f 10 40 39
f 10 39 14
f 211 197 198
f 164 165 166
f 167 168 162
f 169 170 162
f 167 162 171
f 171 162 170
f 171 170 172
f 191 192 190
f 173 174 163
f 163 174 175
f 163 175 176
f 176 164 163
f 163 164 166
f 163 166 162
f 162 166 177
f 162 177 169
f 192 165 164
f 186 189 213
f 171 207 167
f 181 174 182
f 213 210 212
f 182 183 210
f 175 196 176
f 197 203 198
f 192 193 194
f 194 193 195
f 177 195 200
f 172 205 171
f 191 199 193
f 160 163 162
f 170 202 203
f 187 196 208
f 202 200 203
f 203 200 198
f 174 184 183
f 207 184 167
f 174 168 167
f 194 166 165
f 186 206 189
f 204 170 203
f 196 188 190
f 196 190 176
f 197 189 204
f 172 204 206
f 206 204 189
f 190 164 176
f 182 208 181
f 200 169 177
f 180 208 196
f 191 188 201
f 182 174 183
f 175 181 180
f 186 207 209
f 207 206 209
f 173 161 179
f 162 178 160
f 186 213 212
f 207 185 184
f 189 214 213
f 210 184 212
f 210 214 187
f 212 184 185
f 199 189 211
f 200 199 211
f 211 198 200
f 160 179 161
f 179 168 173
f 211 215 197
f 191 193 192
f 192 194 165
f 171 205 207
f 213 214 210
f 186 212 185
f 175 180 196
f 197 204 203
f 177 166 195
f 172 206 205
f 191 201 199
f 160 161 163
f 199 195 193
f 170 169 202
f 187 188 196
f 174 167 184
f 174 173 168
f 194 195 166
f 186 209 206
f 204 172 170
f 197 215 189
f 190 192 164
f 182 187 208
f 200 202 169
f 180 181 208
f 191 190 188
f 175 174 181
f 186 185 207
f 207 205 206
f 173 163 161
f 162 168 178
f 210 187 182
f 189 188 214
f 210 183 184
f 187 214 188
f 199 188 189
f 189 215 211
f 199 201 188
f 200 195 199
f 160 178 179
f 179 178 168
