# Collision geometry from round_peg_8mm.usd: /factory_round_peg_8mm_tight/factory_round_peg_8mm_tight/collision; units meters
v 0.003491666866466403 -0.0001526663254480809 -6.5609003689973133e-15
v 0.003408757271245122 -0.00082086300244554877 -3.8721246653494745e-08
v 0.0031379321590065956 -0.0015500136651098728 -4.4402836962831316e-09
v 0.0028237567748874426 -0.0020678974688053131 -5.2832880292896789e-09
v 0.0023127361200749874 -0.0026344540528953075 -2.4905714823830749e-08
v 0.0015515412669628859 -0.0031434926204383373 -2.2988952963487463e-08
v 0.00068290700437501073 -0.0034384813625365496 -2.470558158051972e-08
v -7.9186414950527251e-05 -0.0034988780971616507 -2.8911666394293434e-09
v -0.00068073364673182368 -0.0034332394134253263 -3.7513938622169007e-09
v -0.0014087986201047897 -0.0032100121024996042 -2.4484460681151177e-08
v -0.0020678974688053131 -0.0028237567748874426 -5.2832880292896789e-09
v -0.0026344540528953075 -0.0023127361200749874 -2.4905714823830749e-08
v -0.0031434926204383373 -0.0015515412669628859 -2.2988952963487463e-08
v -0.0033993173856288195 -0.00083355774404481053 -5.0136939044875817e-09
v -0.0034760001581162214 -0.00038099999073892832 0
v -0.0034985048696398735 7.5298768933862448e-05 5.0449200372781888e-10
v -0.0034332394134253263 0.00068073364673182368 -3.7513938622169007e-09
v -0.0032100121024996042 0.0014087986201047897 -2.4484460681151177e-08
v -0.0028237567748874426 0.0020678974688053131 -5.2832880292896789e-09
v -0.0023127361200749874 0.0026344540528953075 -2.4905714823830749e-08
v -0.0015515412669628859 0.0031434926204383373 -2.2988952963487463e-08
v -0.00068290700437501073 0.0034384813625365496 -2.470558158051972e-08
v 7.9186414950527251e-05 0.0034988780971616507 -2.8911666394293434e-09
v 0.00068073364673182368 0.0034332394134253263 -3.7513938622169007e-09
v 0.0014087986201047897 0.0032100121024996042 -2.4484460681151177e-08
v 0.0020678974688053131 0.0028237567748874426 -5.2832880292896789e-09
v 0.0026344540528953075 0.0023127361200749874 -2.4905714823830749e-08
v 0.0031434926204383373 0.0015515412669628859 -2.2988952963487463e-08
v 0.0033993173856288195 0.00083355774404481053 -5.0136939044875817e-09
v 0.0034909488167613745 0.00024983898038044572 -8.9465874708594129e-09
v 0.0034916650038212538 0.00015266821719706059 0.050000004470348358
v 0.003456000005826354 0.00053199997637420893 0.05000000074505806
v 0.0033514297101646662 0.0010083757806569338 0.050000015646219254
v 0.0031251092441380024 0.0015749919693917036 0.050000011920928955
v 0.0029075001366436481 0.0019425000064074993 0.05000000074505806
v 0.0026116911321878433 0.0023295946884900331 0.050000011920928955
v 0.0021689864806830883 0.002746575279161334 0.050000011920928955
v 0.0016609493177384138 0.0030805217102169991 0.050000011920928955
v 0.0010996139608323574 0.0033224157523363829 0.050000015646219254
v 0.00050581968389451504 0.0034629169385880232 0.050000015646219254
v 7.6500000432133675e-05 0.0034960000775754452 0.05000000074505806
v -0.00041085216798819602 0.0034753815270960331 0.050000011920928955
v -0.0010083757806569338 0.0033514297101646662 0.050000015646219254
v -0.0015749919693917036 0.0031251092441380024 0.050000011920928955
v -0.0019425000064074993 0.0029075001366436481 0.05000000074505806
v -0.0023295946884900331 0.0026116911321878433 0.050000011920928955
v -0.002746575279161334 0.0021689864806830883 0.050000011920928955
v -0.0030805217102169991 0.0016609493177384138 0.050000011920928955
v -0.0033224157523363829 0.0010996139608323574 0.050000015646219254
v -0.0034819918219000101 0.0003848070336971432 0.05000004917383194
v -0.0034890000242739916 -0.00022899999748915434 0.05000000074505806
v -0.0034272999037057161 -0.00070839090039953589 0.050000011920928955
v -0.0033115001861006021 -0.0011239999439567327 0.05000000074505806
v -0.0030529536306858063 -0.001721913693472743 0.050000034272670746
v -0.0026116911321878433 -0.0023295946884900331 0.050000011920928955
v -0.0021689864806830883 -0.002746575279161334 0.050000011920928955
v -0.0016609493177384138 -0.0030805217102169991 0.050000011920928955
v -0.0010996139608323574 -0.0033224157523363829 0.050000015646219254
v -0.00050387618830427527 -0.0034632510505616665 0.050000015646219254
v 0.00010635791841195896 -0.0034977628383785486 0.050000011920928955
v 0.00070839090039953589 -0.0034272999037057161 0.050000011920928955
v 0.0011239999439567327 -0.0033115001861006021 0.05000000074505806
v 0.001721913693472743 -0.0030529536306858063 0.050000034272670746
v 0.0023295946884900331 -0.0026116911321878433 0.050000011920928955
v 0.002746575279161334 -0.0021689864806830883 0.050000011920928955
v 0.0030805217102169991 -0.0016609493177384138 0.050000011920928955
v 0.0033224157523363829 -0.0010996139608323574 0.050000015646219254
v 0.003479016711935401 -0.00040380470454692841 0.050000041723251343
v -0.0039953337982296944 0 0.0494999960064888
v -0.003957544919103384 0.00058576336596161127 0.049500394612550735
v -0.0037903275806456804 0.0012773864436894655 0.049500323832035065
v -0.0035844999365508556 0.0017675000708550215 0.049499999731779099
v -0.0033300924114882946 0.0022164410911500454 0.049500256776809692
v -0.0028945577796548605 0.0027612515259534121 0.049500282853841782
v -0.0023730404209345579 0.0032202983275055885 0.049500327557325363
v -0.0019225000869482756 0.0035040001384913921 0.049499999731779099
v -0.0014618146233260632 0.0037231165915727615 0.0495004802942276
v -0.00095000001601874828 0.0038819999899715185 0.049499999731779099
v -0.00044728899956680834 0.0039750267751514912 0.049500323832035065
v 0.00024206408124882728 0.0039929053746163845 0.049500510096549988
v 0.00077949999831616879 0.0039200000464916229 0.049499999731779099
v 0.0012773864436894655 0.0037903275806456804 0.049500323832035065
v 0.0017675000708550215 0.0035844999365508556 0.049499999731779099
v 0.0022164410911500454 0.0033300924114882946 0.049500256776809692
v 0.0027612515259534121 0.0028945577796548605 0.049500282853841782
v 0.0032202983275055885 0.0023730404209345579 0.049500327557325363
v 0.0035040001384913921 0.0019225000869482756 0.049499999731779099
v 0.0037231165915727615 0.0014618146233260632 0.0495004802942276
v 0.0038819999899715185 0.00095000001601874828 0.049499999731779099
v 0.0039732451550662518 0.00046171501162461936 0.049498416483402252
v 0.0039960001595318317 -8.7000000348780304e-05 0.049499999731779099
v 0.0039537940174341202 -0.00060725281946361065 0.049500133842229843
v 0.0037903275806456804 -0.0012773864436894655 0.049500323832035065
v 0.0035844999365508556 -0.0017675000708550215 0.049499999731779099
v 0.0033300924114882946 -0.0022164410911500454 0.049500256776809692
v 0.0028945577796548605 -0.0027612515259534121 0.049500282853841782
v 0.0023730404209345579 -0.0032202983275055885 0.049500327557325363
v 0.0019225000869482756 -0.0035040001384913921 0.049499999731779099
v 0.0014618146233260632 -0.0037231165915727615 0.0495004802942276
v 0.00095000001601874828 -0.0038819999899715185 0.049499999731779099
v 0.00044504407560452819 -0.0039753499440848827 0.049500308930873871
v -0.00024751480668783188 -0.0039923302829265594 0.049500394612550735
v -0.00077949999831616879 -0.0039200000464916229 0.049499999731779099
v -0.0012773864436894655 -0.0037903275806456804 0.049500323832035065
v -0.0017675000708550215 -0.0035844999365508556 0.049499999731779099
v -0.0022164410911500454 -0.0033300924114882946 0.049500256776809692
v -0.0027612515259534121 -0.0028945577796548605 0.049500282853841782
v -0.0032202983275055885 -0.0023730404209345579 0.049500327557325363
v -0.0035040001384913921 -0.0019225000869482756 0.049499999731779099
v -0.0037231165915727615 -0.0014618146233260632 0.0495004802942276
v -0.0038819999899715185 -0.00095000001601874828 0.049499999731779099
v -0.0039702965877950191 -0.00048403721302747726 0.049498803913593292
v -0.0039953337982296944 0 0.00050000002374872565
v -0.003952524159103632 0.00061888201162219048 0.00049989420222118497
v -0.0037801230791956186 0.001306906808167696 0.00049954710993915796
v -0.0035845001693814993 0.0017675000708550215 0.00050000002374872565
v -0.0033122426830232143 0.0022428310476243496 0.00049964257050305605
v -0.0028726740274578333 0.0027838416863232851 0.0004996319767087698
v -0.0023475531488656998 0.0032387794926762581 0.00049966241931542754
v -0.0019225000869482756 0.0035040001384913921 0.00050000002374872565
v -0.001433304394595325 0.0037340463604778051 0.00049966061487793922
v -0.00095000001601874828 0.0038819999899715185 0.00050000002374872565
v -0.00041549745947122574 0.0039783725515007973 0.00049960275646299124
v 8.7000000348780304e-05 0.0039960001595318317 0.00050000002374872565
v 0.00063863274408504367 0.0039487187750637531 0.00049959932221099734
v 0.001306906808167696 0.0037801230791956186 0.00049954710993915796
v 0.0017675000708550215 0.0035845001693814993 0.00050000002374872565
v 0.0022428310476243496 0.0033122426830232143 0.00049964257050305605
v 0.0027838416863232851 0.0028726740274578333 0.0004996319767087698
v 0.0032387794926762581 0.0023475531488656998 0.00049966241931542754
v 0.0035040001384913921 0.0019225000869482756 0.00050000002374872565
v 0.0037340463604778051 0.001433304394595325 0.00049966061487793922
v 0.0038819999899715185 0.00095000001601874828 0.00050000002374872565
v 0.0039782705716788769 0.0004165765130892396 0.00050000561168417335
v 0.0039960001595318317 -8.7000000348780304e-05 0.00050000002374872565
v 0.0039491811767220497 -0.00063585146563127637 0.00049913662951439619
v 0.0037801230791956186 -0.001306906808167696 0.00049954710993915796
v 0.0035845001693814993 -0.0017675000708550215 0.00050000002374872565
v 0.0033122426830232143 -0.0022428310476243496 0.00049964257050305605
v 0.0028726740274578333 -0.0027838416863232851 0.0004996319767087698
v 0.0023475531488656998 -0.0032387794926762581 0.00049966241931542754
v 0.0019225000869482756 -0.0035040001384913921 0.00050000002374872565
v 0.001433304394595325 -0.0037340463604778051 0.00049966061487793922
v 0.00095000001601874828 -0.0038819999899715185 0.00050000002374872565
v 0.00041469908319413662 -0.0039784852415323257 0.00049962801858782768
v -8.7000000348780304e-05 -0.0039960001595318317 0.00050000002374872565
v -0.00063863274408504367 -0.0039487187750637531 0.00049959932221099734
v -0.001306906808167696 -0.0037801230791956186 0.00049954710993915796
v -0.0017675000708550215 -0.0035845001693814993 0.00050000002374872565
v -0.0022428310476243496 -0.0033122426830232143 0.00049964257050305605
v -0.0027838416863232851 -0.0028726740274578333 0.0004996319767087698
v -0.0032387794926762581 -0.0023475531488656998 0.00049966241931542754
v -0.0035040001384913921 -0.0019225000869482756 0.00050000002374872565
v -0.0037340463604778051 -0.001433304394595325 0.00049966061487793922
v -0.0038819999899715185 -0.00095000001601874828 0.00050000002374872565
v -0.0039743981324136257 -0.00044914250611327589 0.00049974123248830438
f 2 3 1
f 3 4 1
f 4 5 1
f 5 6 1
f 6 7 1
f 7 8 1
f 8 9 1
f 9 10 1
f 10 11 1
f 11 12 1
f 12 13 1
f 13 14 1
f 14 15 1
f 15 16 1
f 16 17 1
f 17 18 1
f 18 19 1
f 19 20 1
f 20 21 1
f 21 22 1
f 22 23 1
f 23 24 1
f 24 25 1
f 25 26 1
f 26 27 1
f 27 28 1
f 28 29 1
f 29 30 1
f 32 33 31
f 33 34 31
f 34 35 31
f 35 36 31
f 36 37 31
f 37 38 31
f 38 39 31
f 39 40 31
f 40 41 31
f 41 42 31
f 42 43 31
f 43 44 31
f 44 45 31
f 45 46 31
f 46 47 31
f 47 48 31
f 48 49 31
f 49 50 31
f 50 51 31
f 51 52 31
f 52 53 31
f 53 54 31
f 54 55 31
f 55 56 31
f 56 57 31
f 57 58 31
f 58 59 31
f 59 60 31
f 60 61 31
f 61 62 31
f 62 63 31
f 63 64 31
f 64 65 31
f 65 66 31
f 66 67 31
f 67 68 31
f 70 50 49
f 71 49 48
f 73 48 47
f 74 47 46
f 75 46 45
f 75 45 44
f 77 44 43
f 78 43 42
f 79 42 41
f 80 41 40
f 81 40 39
f 82 39 38
f 84 38 37
f 85 37 36
f 86 36 35
f 86 35 34
f 88 34 33
f 89 33 32
f 90 32 31
f 91 31 68
f 92 68 67
f 93 67 66
f 95 66 65
f 96 65 64
f 97 64 63
f 99 63 62
f 99 62 61
f 101 61 60
f 102 60 59
f 103 59 58
f 104 58 57
f 106 57 56
f 107 56 55
f 108 55 54
f 110 54 53
f 110 53 52
f 112 52 51
f 69 51 50
f 51 69 112
f 52 112 111
f 52 111 110
f 54 110 109
f 54 109 108
f 55 108 107
f 56 107 106
f 57 106 105
f 57 105 104
f 58 104 103
f 59 103 102
f 60 102 101
f 61 101 100
f 61 100 99
f 63 99 98
f 63 98 97
f 64 97 96
f 65 96 95
f 66 95 94
f 66 94 93
f 67 93 92
f 68 92 91
f 31 91 90
f 32 90 89
f 33 89 88
f 34 88 87
f 34 87 86
f 36 86 85
f 37 85 84
f 38 84 83
f 38 83 82
f 39 82 81
f 40 81 80
f 41 80 79
f 42 79 78
f 43 78 77
f 44 77 76
f 44 76 75
f 46 75 74
f 47 74 73
f 48 73 72
f 48 72 71
f 49 71 70
f 50 70 69
f 113 69 70
f 114 70 71
f 115 71 72
f 116 72 73
f 117 73 74
f 118 74 75
f 119 75 76
f 120 76 77
f 121 77 78
f 122 78 79
f 123 79 80
f 125 80 81
f 125 81 82
f 126 82 83
f 127 83 84
f 128 84 85
f 129 85 86
f 130 86 87
f 131 87 88
f 132 88 89
f 133 89 90
f 134 90 91
f 135 91 92
f 136 92 93
f 137 93 94
f 138 94 95
f 139 95 96
f 140 96 97
f 141 97 98
f 142 98 99
f 143 99 100
f 144 100 101
f 145 101 102
f 147 102 103
f 147 103 104
f 148 104 105
f 149 105 106
f 150 106 107
f 151 107 108
f 152 108 109
f 153 109 110
f 154 110 111
f 155 111 112
f 156 112 69
f 69 113 156
f 112 156 155
f 111 155 154
f 110 154 153
f 109 153 152
f 108 152 151
f 107 151 150
f 106 150 149
f 105 149 148
f 104 148 147
f 102 147 146
f 102 146 145
f 101 145 144
f 100 144 143
f 99 143 142
f 98 142 141
f 97 141 140
f 96 140 139
f 95 139 138
f 94 138 137
f 93 137 136
f 92 136 135
f 91 135 134
f 90 134 133
f 89 133 132
f 88 132 131
f 87 131 130
f 86 130 129
f 85 129 128
f 84 128 127
f 83 127 126
f 82 126 125
f 80 125 124
f 80 124 123
f 79 123 122
f 78 122 121
f 77 121 120
f 76 120 119
f 75 119 118
f 74 118 117
f 73 117 116
f 72 116 115
f 71 115 114
f 70 114 113
f 135 1 30
f 134 30 29
f 132 29 28
f 130 28 27
f 129 27 26
f 128 26 25
f 126 25 24
f 125 24 23
f 123 23 22
f 121 22 21
f 119 21 20
f 118 20 19
f 117 19 18
f 115 18 17
f 114 17 16
f 113 16 15
f 156 15 14
f 154 14 13
f 152 13 12
f 151 12 11
f 150 11 10
f 148 10 9
f 147 9 8
f 145 8 7
f 143 7 6
f 141 6 5
f 140 5 4
f 139 4 3
f 137 3 2
f 136 2 1
f 1 135 136
f 2 136 137
f 3 137 138
f 3 138 139
f 4 139 140
f 5 140 141
f 6 141 142
f 6 142 143
f 7 143 144
f 7 144 145
f 8 145 146
f 8 146 147
f 9 147 148
f 10 148 149
f 10 149 150
f 11 150 151
f 12 151 152
f 13 152 153
f 13 153 154
f 14 154 155
f 14 155 156
f 15 156 113
f 16 113 114
f 17 114 115
f 18 115 116
f 18 116 117
f 19 117 118
f 20 118 119
f 21 119 120
f 21 120 121
f 22 121 122
f 22 122 123
f 23 123 124
f 23 124 125
f 24 125 126
f 25 126 127
f 25 127 128
f 26 128 129
f 27 129 130
f 28 130 131
f 28 131 132
f 29 132 133
f 29 133 134
f 30 134 135
