# Collision geometry from round_hole_8mm.usd: /factory_round_hole_8mm_subdiv_3x/factory_round_hole_8mm_subdiv_3x/collision; units meters
v -0.012500000593718141 -0.012500000593718141 -5.4639236121700755e-10
v 0.012500000593718141 -0.012500000593718141 -5.4639236121700755e-10
v 0.0040390583308180794 -0.00065485523919051047 -1.4540707286914378e-19
v 0.0036295859899837524 -0.0019205854187021032 -4.2645563052048434e-19
v 0.0027503188903210685 -0.0030357447030837648 -6.7407073324949102e-19
v 0.0018499160432838835 -0.0036460718547459692 -8.0959058451534486e-19
v 0.00068257959355833009 -0.004049186100019142 -8.990999278466787e-19
v -0.00065485542108945083 -0.0040390579670201987 -8.9685103055630016e-19
v -0.0019205856006010436 -0.0036295856261858717 -8.0592990640801424e-19
v -0.0030357448849827051 -0.0027503187084221281 -6.1069343102951381e-19
v -0.0036460722185438499 -0.0018499158613849431 -4.1076383658576868e-19
v -0.0040491864638170227 -0.00068257941165938973 -1.515630757918695e-19
v -0.0040390583308180794 0.00065485560298839118 1.4540715364850047e-19
v -0.0036295859899837524 0.0019205856006010436 4.2645567091016269e-19
v -0.0027503188903210685 0.0030357450668816455 6.7407081402884771e-19
v -0.0018499160432838835 0.0036460725823417306 8.0959074607405825e-19
v -0.00068257959355833009 0.0040491868276149035 8.9910008940539209e-19
v 0.00065485542108945083 0.0040390586946159601 8.9685119211501354e-19
v 0.0019205856006010436 0.0036295863537816331 8.0593006796672763e-19
v 0.0030357448849827051 0.0027503190722200088 6.1069351180887051e-19
v 0.0036460722185438499 0.0018499162251828238 4.1076391736512537e-19
v 0.0040491864638170227 0.00068257977545727044 1.515631565712262e-19
v 0.012500000593718141 0.012500000593718141 5.4639236121700755e-10
v -0.012500000593718141 0.012500000593718141 5.4639236121700755e-10
v -0.012500000593718141 -0.012500000593718143 0.0089996174210682477
v 0.012500000593718141 -0.012500000593718143 0.0089996174210682477
v -0.0019205856006010436 -0.0036295863537816352 0.0089996181486640126
v 0.00068257959355833009 -0.0040491868276149052 0.0089996181486640108
v -0.0036460722185438499 -0.0018499165889807065 0.0089996181486640126
v -0.0030357448849827051 -0.0027503194360178917 0.0089996181486640126
v -0.0040491864638170227 -0.00068258018472988819 0.0089996181486640126
v -0.00065485542108945083 -0.0040390586946159619 0.0089996181486640108
v -0.0040390583308180794 0.00065485482991789272 0.0089996181486640126
v -0.012500000593718141 0.01250000059371814 0.0089996188762597774
v 0.012500000593718141 0.01250000059371814 0.0089996188762597774
v -0.0036295859899837524 0.0019205850549042205 0.0089996181486640126
v -0.0027503188903210685 0.0030357443392858819 0.0089996181486640126
v -0.0018499160432838835 0.003646071854745967 0.0089996181486640126
v -0.00068257959355833009 0.0040491861000191403 0.0089996181486640143
v 0.00065485542108945083 0.004039057967020197 0.0089996181486640143
v 0.0019205856006010436 0.0036295856261858695 0.0089996181486640126
v 0.0030357448849827051 0.0027503183446242452 0.0089996181486640126
v 0.0036460722185438499 0.0018499154975870605 0.0089996181486640126
v 0.0040491864638170227 0.00068257900238677198 0.0089996181486640126
v 0.0040390583308180794 -0.00065485601226100893 0.0089996181486640126
v 0.0036295859899837524 -0.0019205859643989262 0.0089996181486640126
v 0.0027503188903210685 -0.0030357454306795283 0.0089996181486640126
v 0.0018499160432838835 -0.0036460725823417328 0.0089996181486640126
f 23 18 17
f 17 24 23
f 2 1 7
f 1 11 10
f 1 10 9
f 1 12 11
f 23 20 19
f 23 21 20
f 2 5 4
f 9 8 1
f 19 18 23
f 4 3 2
f 2 7 6
f 8 7 1
f 24 14 13
f 23 2 22
f 23 22 21
f 24 17 16
f 13 1 24
f 13 12 1
f 15 14 24
f 16 15 24
f 3 22 2
f 6 5 2
f 26 23 35
f 25 2 26
f 34 1 25
f 26 28 25
f 27 25 32
f 25 27 30
f 32 25 28
f 25 29 31
f 25 30 29
f 33 25 31
f 33 34 25
f 39 35 34
f 37 34 36
f 34 33 36
f 38 34 37
f 34 38 39
f 35 39 40
f 41 35 40
f 35 41 42
f 35 42 43
f 35 43 44
f 45 26 44
f 35 44 26
f 46 26 45
f 26 46 47
f 48 26 47
f 26 48 28
f 35 24 34
f 31 11 12
f 29 10 11
f 30 9 10
f 27 8 9
f 32 7 8
f 28 6 7
f 48 5 6
f 39 16 17
f 38 15 16
f 37 14 15
f 36 13 14
f 33 12 13
f 40 17 18
f 41 18 19
f 42 19 20
f 43 20 21
f 44 21 22
f 45 22 3
f 46 3 4
f 47 4 5
f 26 2 23
f 25 1 2
f 34 24 1
f 35 23 24
f 31 29 11
f 29 30 10
f 30 27 9
f 27 32 8
f 32 28 7
f 28 48 6
f 48 47 5
f 39 38 16
f 38 37 15
f 37 36 14
f 36 33 13
f 33 31 12
f 40 39 17
f 41 40 18
f 42 41 19
f 43 42 20
f 44 43 21
f 45 44 22
f 46 45 3
f 47 46 4
